0
SECTION
2
HEADER
9
$INSUNITS
70
4
9
$ACADVER
1
AC1014
9
$HANDSEED
5
FFFF
0
ENDSEC
0
SECTION
2
TABLES
0
TABLE
2
VPORT
5
8
100
AcDbSymbolTable
0
ENDTAB
0
TABLE
2
LTYPE
5
5
100
AcDbSymbolTable
0
LTYPE
5
14
100
AcDbSymbolTableRecord
100
AcDbLinetypeTableRecord
2
BYBLOCK
70
0
0
LTYPE
5
15
100
AcDbSymbolTableRecord
100
AcDbLinetypeTableRecord
2
BYLAYER
70
0
0
ENDTAB
0
TABLE
2
LAYER
5
2
100
AcDbSymbolTable
70
2
0
LAYER
5
50
100
AcDbSymbolTableRecord
100
AcDbLayerTableRecord
2
0
70
0
6
CONTINUOUS
0
ENDTAB
0
TABLE
2
STYLE
5
3
100
AcDbSymbolTable
70
1
0
STYLE
5
11
100
AcDbSymbolTableRecord
100
AcDbTextStyleTableRecord
2
STANDARD
70
0
0
ENDTAB
0
TABLE
2
VIEW
5
6
100
AcDbSymbolTable
70
0
0
ENDTAB
0
TABLE
2
UCS
5
7
100
AcDbSymbolTable
70
0
0
ENDTAB
0
TABLE
2
APPID
5
9
100
AcDbSymbolTable
70
2
0
APPID
5
12
100
AcDbSymbolTableRecord
100
AcDbRegAppTableRecord
2
ACAD
70
0
0
ENDTAB
0
TABLE
2
DIMSTYLE
5
A
100
AcDbSymbolTable
70
1
0
ENDTAB
0
TABLE
2
BLOCK_RECORD
5
1
100
AcDbSymbolTable
70
1
0
BLOCK_RECORD
5
1F
100
AcDbSymbolTableRecord
100
AcDbBlockTableRecord
2
*MODEL_SPACE
0
BLOCK_RECORD
5
1B
100
AcDbSymbolTableRecord
100
AcDbBlockTableRecord
2
*PAPER_SPACE
0
ENDTAB
0
ENDSEC
0
SECTION
2
BLOCKS
0
BLOCK
5
20
100
AcDbEntity
100
AcDbBlockBegin
2
*MODEL_SPACE
0
ENDBLK
5
21
100
AcDbEntity
100
AcDbBlockEnd
0
BLOCK
5
1C
100
AcDbEntity
100
AcDbBlockBegin
2
*PAPER_SPACE
0
ENDBLK
5
1D
100
AcDbEntity
100
AcDbBlockEnd
0
ENDSEC
0
SECTION
2
ENTITIES
0
LINE
5
100
100
AcDbEntity
8
0
100
AcDbLine
10
0
20
0
30
0
11
19.199999999999999
21
0
31
0
0
LINE
5
101
100
AcDbEntity
8
0
100
AcDbLine
10
19.199999999999999
20
0
30
0
11
19.199999999999999
21
76.799999999999997
31
0
0
LINE
5
102
100
AcDbEntity
8
0
100
AcDbLine
10
19.199999999999999
20
76.799999999999997
30
0
11
0
21
76.799999999999997
31
0
0
LINE
5
103
100
AcDbEntity
8
0
100
AcDbLine
10
0
20
76.799999999999997
30
0
11
0
21
0
31
0
0
LWPOLYLINE
5
104
100
AcDbEntity
8
0
100
AcDbPolyline
90
4
70
1
43
0.0
10
4.9999467313517751
20
14.701953124902165
10
5
20
0.20000000000000001
10
1.0000000000269849
20
0.19998530717958651
10
0.99994673137875967
20
14.701938432081752
0
LWPOLYLINE
5
105
100
AcDbEntity
8
0
100
AcDbPolyline
90
4
70
1
43
0.0
10
8.9999748328065365
20
7.0515622615351976
10
9
20
0.20000000000000001
10
5.0000000000269846
20
0.19998530717958762
10
4.9999748328335212
20
7.0515475687147857
0
LINE
5
106
100
AcDbEntity
8
0
100
AcDbLine
10
19.199999999999999
20
0
30
0
11
38.700000000000003
21
0
31
0
0
LINE
5
107
100
AcDbEntity
8
0
100
AcDbLine
10
38.700000000000003
20
0
30
0
11
38.700000000000003
21
76.499999999999986
31
0
0
LINE
5
108
100
AcDbEntity
8
0
100
AcDbLine
10
38.700000000000003
20
76.499999999999986
30
0
11
19.199999999999999
21
76.499999999999986
31
0
0
LINE
5
109
100
AcDbEntity
8
0
100
AcDbLine
10
19.199999999999999
20
76.499999999999986
30
0
11
19.199999999999999
21
0
31
0
0
LWPOLYLINE
5
110
100
AcDbEntity
8
0
100
AcDbPolyline
90
4
70
1
43
0.0
10
24.199930790214687
20
19.041797113291466
10
24.199999999999999
20
0.20000000000000001
10
20.200000000026982
20
0.19998530717958651
10
20.199930790241673
20
19.041782420471055
0
LWPOLYLINE
5
111
100
AcDbEntity
8
0
100
AcDbPolyline
90
4
70
1
43
0.0
10
28.19996666136047
20
9.2761715173109014
10
28.200000000000003
20
0.20000000000000001
10
24.200000000026986
20
0.19998530717958762
10
24.199966661387453
20
9.2761568244904886
0
LINE
5
112
100
AcDbEntity
8
0
100
AcDbLine
10
38.700000000000003
20
0
30
0
11
76.200000000000003
21
0
31
0
0
LINE
5
113
100
AcDbEntity
8
0
100
AcDbLine
10
76.200000000000003
20
0
30
0
11
76.200000000000003
21
75
31
0
0
LINE
5
114
100
AcDbEntity
8
0
100
AcDbLine
10
76.200000000000003
20
75
30
0
11
38.700000000000003
21
75
31
0
0
LINE
5
115
100
AcDbEntity
8
0
100
AcDbLine
10
38.700000000000003
20
75
30
0
11
38.700000000000003
21
0
31
0
0
LWPOLYLINE
5
116
100
AcDbEntity
8
0
100
AcDbPolyline
90
4
70
1
43
0.0
10
43.69996900015947
20
8.6394526481059071
10
43.700000000000003
20
0.20000000000000001
10
39.700000000026982
20
0.19998530717958762
10
39.699969000186449
20
8.6394379552854943
0
LWPOLYLINE
5
117
100
AcDbEntity
8
0
100
AcDbPolyline
90
4
70
1
43
0.0
10
47.699965829147317
20
9.5027347325651093
10
47.700000000000003
20
0.20000000000000001
10
43.700000000026989
20
0.19998530717958762
10
43.699965829174296
20
9.5027200397446983
0
LINE
5
118
100
AcDbEntity
8
0
100
AcDbLine
10
76.200000000000003
20
0
30
0
11
100.19999999999999
21
0
31
0
0
LINE
5
119
100
AcDbEntity
8
0
100
AcDbLine
10
100.19999999999999
20
0
30
0
11
100.19999999999999
21
75
31
0
0
LINE
5
120
100
AcDbEntity
8
0
100
AcDbLine
10
100.19999999999999
20
75
30
0
11
76.200000000000003
21
75
31
0
0
LINE
5
121
100
AcDbEntity
8
0
100
AcDbLine
10
76.200000000000003
20
75
30
0
11
76.200000000000003
21
0
31
0
0
LWPOLYLINE
5
122
100
AcDbEntity
8
0
100
AcDbPolyline
90
4
70
1
43
0.0
10
81.199933028579323
20
18.432420682784102
10
81.200000000000017
20
0.20000000000000001
10
77.200000000027003
20
0.19998530717958651
10
77.199933028606296
20
18.432405989963691
0
LWPOLYLINE
5
123
100
AcDbEntity
8
0
100
AcDbPolyline
90
4
70
1
43
0.0
10
85.199966661360463
20
9.2761715173109014
10
85.199999999999989
20
0.20000000000000001
10
81.200000000026975
20
0.19998530717958762
10
81.19996666138745
20
9.2761568244904886
0
LINE
5
124
100
AcDbEntity
8
0
100
AcDbLine
10
100.19999999999999
20
0
30
0
11
118.65000000000001
21
0
31
0
0
LINE
5
125
100
AcDbEntity
8
0
100
AcDbLine
10
118.65000000000001
20
0
30
0
11
118.65000000000001
21
73.200000000000003
31
0
0
LINE
5
126
100
AcDbEntity
8
0
100
AcDbLine
10
118.65000000000001
20
73.200000000000003
30
0
11
100.19999999999999
21
73.200000000000003
31
0
0
LINE
5
127
100
AcDbEntity
8
0
100
AcDbLine
10
100.19999999999999
20
73.200000000000003
30
0
11
100.19999999999999
21
0
31
0
0
LWPOLYLINE
5
128
100
AcDbEntity
8
0
100
AcDbPolyline
90
4
70
1
43
0.0
10
105.19996622372987
20
9.3953128575658358
10
105.19999999999999
20
0.20000000000000001
10
101.20000000002698
20
0.19998530717958762
10
101.19996622375687
20
9.395298164745423
0
LWPOLYLINE
5
129
100
AcDbEntity
8
0
100
AcDbPolyline
90
4
70
1
43
0.0
10
109.19996582914732
20
9.5027347325651093
10
109.2
20
0.20000000000000001
10
105.20000000002698
20
0.19998530717958762
10
105.19996582917429
20
9.5027200397446983
0
LINE
5
130
100
AcDbEntity
8
0
100
AcDbLine
10
118.65000000000001
20
0
30
0
11
137.10000000000002
21
0
31
0
0
LINE
5
131
100
AcDbEntity
8
0
100
AcDbLine
10
137.10000000000002
20
0
30
0
11
137.10000000000002
21
73.200000000000003
31
0
0
LINE
5
132
100
AcDbEntity
8
0
100
AcDbLine
10
137.10000000000002
20
73.200000000000003
30
0
11
118.65000000000001
21
73.200000000000003
31
0
0
LINE
5
133
100
AcDbEntity
8
0
100
AcDbLine
10
118.65000000000001
20
73.200000000000003
30
0
11
118.65000000000001
21
0
31
0
0
LWPOLYLINE
5
134
100
AcDbEntity
8
0
100
AcDbPolyline
90
4
70
1
43
0.0
10
123.64996622372988
20
9.3953128575658358
10
123.65000000000001
20
0.20000000000000001
10
119.65000000002698
20
0.19998530717958762
10
119.64996622375688
20
9.395298164745423
0
LWPOLYLINE
5
135
100
AcDbEntity
8
0
100
AcDbPolyline
90
4
70
1
43
0.0
10
127.64996582914732
20
9.5027347325651093
10
127.65000000000001
20
0.20000000000000001
10
123.65000000002698
20
0.19998530717958762
10
123.64996582917429
20
9.5027200397446983
0
LINE
5
136
100
AcDbEntity
8
0
100
AcDbLine
10
137.10000000000002
20
0
30
0
11
155.55000000000001
21
0
31
0
0
LINE
5
137
100
AcDbEntity
8
0
100
AcDbLine
10
155.55000000000001
20
0
30
0
11
155.55000000000001
21
73.200000000000003
31
0
0
LINE
5
138
100
AcDbEntity
8
0
100
AcDbLine
10
155.55000000000001
20
73.200000000000003
30
0
11
137.10000000000002
21
73.200000000000003
31
0
0
LINE
5
139
100
AcDbEntity
8
0
100
AcDbLine
10
137.10000000000002
20
73.200000000000003
30
0
11
137.10000000000002
21
0
31
0
0
LWPOLYLINE
5
140
100
AcDbEntity
8
0
100
AcDbPolyline
90
4
70
1
43
0.0
10
142.09996622372989
20
9.3953128575658358
10
142.10000000000002
20
0.20000000000000001
10
138.10000000002699
20
0.19998530717958762
10
138.09996622375689
20
9.395298164745423
0
LWPOLYLINE
5
141
100
AcDbEntity
8
0
100
AcDbPolyline
90
4
70
1
43
0.0
10
146.09996582914732
20
9.5027347325651093
10
146.10000000000002
20
0.20000000000000001
10
142.10000000002699
20
0.19998530717958762
10
142.09996582917429
20
9.5027200397446983
0
LINE
5
142
100
AcDbEntity
8
0
100
AcDbLine
10
0
20
76.799999999999997
30
0
11
18.449999999999999
21
76.799999999999997
31
0
0
LINE
5
143
100
AcDbEntity
8
0
100
AcDbLine
10
18.449999999999999
20
76.799999999999997
30
0
11
18.449999999999999
21
150
31
0
0
LINE
5
144
100
AcDbEntity
8
0
100
AcDbLine
10
18.449999999999999
20
150
30
0
11
0
21
150
31
0
0
LINE
5
145
100
AcDbEntity
8
0
100
AcDbLine
10
0
20
150
30
0
11
0
21
76.799999999999997
31
0
0
LWPOLYLINE
5
146
100
AcDbEntity
8
0
100
AcDbPolyline
90
4
70
1
43
0.0
10
4.9999662237298859
20
86.195312857565824
10
5
20
77
10
1.0000000000269849
20
76.999985307179585
10
0.99996622375687072
20
86.19529816474541
0
LWPOLYLINE
5
147
100
AcDbEntity
8
0
100
AcDbPolyline
90
4
70
1
43
0.0
10
8.9999658291473068
20
86.302734732565099
10
9
20
77
10
5.0000000000269846
20
76.999985307179585
10
4.9999658291742914
20
86.302720039744685
0
LINE
5
148
100
AcDbEntity
8
0
100
AcDbLine
10
18.449999999999999
20
76.799999999999997
30
0
11
36.899999999999999
21
76.799999999999997
31
0
0
LINE
5
149
100
AcDbEntity
8
0
100
AcDbLine
10
36.899999999999999
20
76.799999999999997
30
0
11
36.899999999999999
21
150
31
0
0
LINE
5
150
100
AcDbEntity
8
0
100
AcDbLine
10
36.899999999999999
20
150
30
0
11
18.449999999999999
21
150
31
0
0
LINE
5
151
100
AcDbEntity
8
0
100
AcDbLine
10
18.449999999999999
20
150
30
0
11
18.449999999999999
21
76.799999999999997
31
0
0
LWPOLYLINE
5
152
100
AcDbEntity
8
0
100
AcDbPolyline
90
4
70
1
43
0.0
10
23.449966223729888
20
86.195312857565824
10
23.450000000000003
20
77
10
19.450000000026986
20
76.999985307179585
10
19.449966223756871
20
86.19529816474541
0
LWPOLYLINE
5
153
100
AcDbEntity
8
0
100
AcDbPolyline
90
4
70
1
43
0.0
10
27.449965829147306
20
86.302734732565099
10
27.450000000000003
20
77
10
23.450000000026986
20
76.999985307179585
10
23.449965829174289
20
86.302720039744685
0
LINE
5
154
100
AcDbEntity
8
0
100
AcDbLine
10
36.899999999999999
20
76.799999999999997
30
0
11
55.350000000000001
21
76.799999999999997
31
0
0
LINE
5
155
100
AcDbEntity
8
0
100
AcDbLine
10
55.350000000000001
20
76.799999999999997
30
0
11
55.350000000000001
21
150
31
0
0
LINE
5
156
100
AcDbEntity
8
0
100
AcDbLine
10
55.350000000000001
20
150
30
0
11
36.899999999999999
21
150
31
0
0
LINE
5
157
100
AcDbEntity
8
0
100
AcDbLine
10
36.899999999999999
20
150
30
0
11
36.899999999999999
21
76.799999999999997
31
0
0
LWPOLYLINE
5
158
100
AcDbEntity
8
0
100
AcDbPolyline
90
4
70
1
43
0.0
10
41.899966223729891
20
86.195312857565824
10
41.900000000000006
20
77
10
37.900000000026985
20
76.999985307179585
10
37.899966223756877
20
86.19529816474541
0
LWPOLYLINE
5
159
100
AcDbEntity
8
0
100
AcDbPolyline
90
4
70
1
43
0.0
10
45.899965829147305
20
86.302734732565099
10
45.899999999999999
20
77
10
41.900000000026985
20
76.999985307179585
10
41.899965829174292
20
86.302720039744685
0
LINE
5
160
100
AcDbEntity
8
0
100
AcDbLine
10
55.350000000000001
20
76.799999999999997
30
0
11
85.349999999999994
21
76.799999999999997
31
0
0
LINE
5
161
100
AcDbEntity
8
0
100
AcDbLine
10
85.349999999999994
20
76.799999999999997
30
0
11
85.349999999999994
21
145.79999999999998
31
0
0
LINE
5
162
100
AcDbEntity
8
0
100
AcDbLine
10
85.349999999999994
20
145.79999999999998
30
0
11
55.350000000000001
21
145.79999999999998
31
0
0
LINE
5
163
100
AcDbEntity
8
0
100
AcDbLine
10
55.350000000000001
20
145.79999999999998
30
0
11
55.350000000000001
21
76.799999999999997
31
0
0
LWPOLYLINE
5
164
100
AcDbEntity
8
0
100
AcDbPolyline
90
4
70
1
43
0.0
10
60.349959257557742
20
88.091796159669428
10
60.350000000000001
20
77
10
56.350000000026988
20
76.999985307179585
10
56.349959257584729
20
88.091781466849014
0
LINE
5
165
100
AcDbEntity
8
0
100
AcDbLine
10
85.349999999999994
20
76.799999999999997
30
0
11
115.34999999999999
21
76.799999999999997
31
0
0
LINE
5
166
100
AcDbEntity
8
0
100
AcDbLine
10
115.34999999999999
20
76.799999999999997
30
0
11
115.34999999999999
21
136.80000000000001
31
0
0
LINE
5
167
100
AcDbEntity
8
0
100
AcDbLine
10
115.34999999999999
20
136.80000000000001
30
0
11
85.349999999999994
21
136.80000000000001
31
0
0
LINE
5
168
100
AcDbEntity
8
0
100
AcDbLine
10
85.349999999999994
20
136.80000000000001
30
0
11
85.349999999999994
21
76.799999999999997
31
0
0
LWPOLYLINE
5
169
100
AcDbEntity
8
0
100
AcDbPolyline
90
4
70
1
43
0.0
10
90.349934893874391
20
94.724609374880401
10
90.349999999999994
20
77
10
86.350000000026981
20
76.999985307179585
10
86.349934893901377
20
94.724594682060001
0
LWPOLYLINE
5
170
100
AcDbEntity
8
0
100
AcDbPolyline
90
4
70
1
43
0.0
10
94.349966223729893
20
86.195312857565824
10
94.350000000000009
20
77
10
90.350000000026981
20
76.999985307179585
10
90.34996622375688
20
86.19529816474541
0
LWPOLYLINE
5
171
100
AcDbEntity
8
0
100
AcDbPolyline
90
4
70
1
43
0.0
10
98.349960412602456
20
87.777344703601599
10
98.350000000000009
20
77
10
94.350000000026995
20
76.999985307179585
10
94.349960412629429
20
87.777330010781185
0
LINE
5
172
100
AcDbEntity
8
0
100
AcDbLine
10
115.34999999999999
20
76.799999999999997
30
0
11
139.95000000000002
21
76.799999999999997
31
0
0
LINE
5
173
100
AcDbEntity
8
0
100
AcDbLine
10
139.95000000000002
20
76.799999999999997
30
0
11
139.95000000000002
21
126.89999999999999
31
0
0
LINE
5
174
100
AcDbEntity
8
0
100
AcDbLine
10
139.95000000000002
20
126.89999999999999
30
0
11
115.34999999999999
21
126.89999999999999
31
0
0
LINE
5
175
100
AcDbEntity
8
0
100
AcDbLine
10
115.34999999999999
20
126.89999999999999
30
0
11
115.34999999999999
21
76.799999999999997
31
0
0
LWPOLYLINE
5
176
100
AcDbEntity
8
0
100
AcDbPolyline
90
4
70
1
43
0.0
10
120.349959343645
20
88.068359613343887
10
120.34999999999999
20
77
10
116.35000000002698
20
76.999985307179585
10
116.34995934367197
20
88.068344920523487
0
LWPOLYLINE
5
177
100
AcDbEntity
8
0
100
AcDbPolyline
90
4
70
1
43
0.0
10
124.34996582914732
20
86.302734732565099
10
124.35000000000001
20
77
10
120.35000000002698
20
76.999985307179585
10
120.34996582917429
20
86.302720039744685
0
LINE
5
178
100
AcDbEntity
8
0
100
AcDbLine
10
155.55000000000001
20
0
30
0
11
200.55000000000001
21
0
31
0
0
LINE
5
179
100
AcDbEntity
8
0
100
AcDbLine
10
200.55000000000001
20
0
30
0
11
200.55000000000001
21
48.000000000000014
31
0
0
LINE
5
180
100
AcDbEntity
8
0
100
AcDbLine
10
200.55000000000001
20
48.000000000000014
30
0
11
155.55000000000001
21
48.000000000000014
31
0
0
LINE
5
181
100
AcDbEntity
8
0
100
AcDbLine
10
155.55000000000001
20
48.000000000000014
30
0
11
155.55000000000001
21
0
31
0
0
LWPOLYLINE
5
182
100
AcDbEntity
8
0
100
AcDbPolyline
90
4
70
1
43
0.0
10
160.54996412168393
20
9.9675776480969471
10
160.55000000000001
20
0.20000000000000001
10
156.55000000002698
20
0.19998530717958762
10
156.54996412171093
20
9.9675629552765344
0
LWPOLYLINE
5
183
100
AcDbEntity
8
0
100
AcDbPolyline
90
4
70
1
43
0.0
10
164.54996052022025
20
10.948046636508913
10
164.55000000000001
20
0.20000000000000001
10
160.55000000002701
20
0.19998530717958651
10
160.54996052024723
20
10.948031943688498
0
LINE
5
184
100
AcDbEntity
8
0
100
AcDbLine
10
155.55000000000001
20
48.000000000000014
30
0
11
185.55000000000001
21
48.000000000000014
31
0
0
LINE
5
185
100
AcDbEntity
8
0
100
AcDbLine
10
185.55000000000001
20
48.000000000000014
30
0
11
185.55000000000001
21
96.000000000000014
31
0
0
LINE
5
186
100
AcDbEntity
8
0
100
AcDbLine
10
185.55000000000001
20
96.000000000000014
30
0
11
155.55000000000001
21
96.000000000000014
31
0
0
LINE
5
187
100
AcDbEntity
8
0
100
AcDbLine
10
155.55000000000001
20
96.000000000000014
30
0
11
155.55000000000001
21
48.000000000000014
31
0
0
LWPOLYLINE
5
188
100
AcDbEntity
8
0
100
AcDbPolyline
90
4
70
1
43
0.0
10
160.54996412168393
20
57.967577648096949
10
160.55000000000001
20
48.200000000000003
10
156.55000000002698
20
48.199985307179595
10
156.54996412171093
20
57.967562955276541
0
LWPOLYLINE
5
189
100
AcDbEntity
8
0
100
AcDbPolyline
90
4
70
1
43
0.0
10
164.5499683544767
20
56.81523449415117
10
164.55000000000001
20
48.200000000000003
10
160.55000000002701
20
48.199985307179595
10
160.54996835450368
20
56.815219801330763
0
LINE
5
190
100
AcDbEntity
8
0
100
AcDbLine
10
155.55000000000001
20
96.000000000000014
30
0
11
176.55000000000001
21
96.000000000000014
31
0
0
LINE
5
191
100
AcDbEntity
8
0
100
AcDbLine
10
176.55000000000001
20
96.000000000000014
30
0
11
176.55000000000001
21
141
31
0
0
LINE
5
192
100
AcDbEntity
8
0
100
AcDbLine
10
176.55000000000001
20
141
30
0
11
155.55000000000001
21
141
31
0
0
LINE
5
193
100
AcDbEntity
8
0
100
AcDbLine
10
155.55000000000001
20
141
30
0
11
155.55000000000001
21
96.000000000000014
31
0
0
LWPOLYLINE
5
194
100
AcDbEntity
8
0
100
AcDbPolyline
90
4
70
1
43
0.0
10
160.54996095784645
20
106.82890648834687
10
160.55000000000001
20
96.200000000000017
10
156.55000000002698
20
96.199985307179588
10
156.54996095787342
20
106.82889179552647
0
LWPOLYLINE
5
195
100
AcDbEntity
8
0
100
AcDbPolyline
90
4
70
1
43
0.0
10
164.54995393427919
20
108.74101514807825
10
164.55000000000001
20
96.200000000000017
10
160.55000000002701
20
96.199985307179588
10
160.54995393430616
20
108.74100045525782
0
LWPOLYLINE
5
196
100
AcDbEntity
8
0
100
AcDbPolyline
90
4
70
1
43
0.0
10
168.54996491802157
20
105.75078124993559
10
168.55000000000001
20
96.200000000000017
10
164.55000000002698
20
96.199985307179588
10
164.54996491804854
20
105.75076655711516
0
LINE
5
197
100
AcDbEntity
8
0
100
AcDbLine
10
176.55000000000001
20
96.000000000000014
30
0
11
197.55000000000007
21
96.000000000000014
31
0
0
LINE
5
198
100
AcDbEntity
8
0
100
AcDbLine
10
197.55000000000007
20
96.000000000000014
30
0
11
197.55000000000007
21
141
31
0
0
LINE
5
199
100
AcDbEntity
8
0
100
AcDbLine
10
197.55000000000007
20
141
30
0
11
176.55000000000001
21
141
31
0
0
LINE
5
200
100
AcDbEntity
8
0
100
AcDbLine
10
176.55000000000001
20
141
30
0
11
176.55000000000001
21
96.000000000000014
31
0
0
LWPOLYLINE
5
201
100
AcDbEntity
8
0
100
AcDbPolyline
90
4
70
1
43
0.0
10
181.54996095784645
20
106.82890648834687
10
181.55000000000001
20
96.200000000000017
10
177.55000000002698
20
96.199985307179588
10
177.54996095787345
20
106.82889179552647
0
LWPOLYLINE
5
202
100
AcDbEntity
8
0
100
AcDbPolyline
90
4
70
1
43
0.0
10
185.54995393427924
20
108.74101514807825
10
185.55000000000007
20
96.200000000000017
10
181.55000000002704
20
96.199985307179588
10
181.54995393430622
20
108.74100045525782
0
LWPOLYLINE
5
203
100
AcDbEntity
8
0
100
AcDbPolyline
90
4
70
1
43
0.0
10
189.54998009151535
20
101.61992187496345
10
189.55000000000001
20
96.200000000000017
10
185.55000000002701
20
96.199985307179588
10
185.54998009154232
20
101.61990718214304
0
LINE
5
204
100
AcDbEntity
8
0
100
AcDbLine
10
0
20
150
30
0
11
18
21
150
31
0
0
LINE
5
205
100
AcDbEntity
8
0
100
AcDbLine
10
18
20
150
30
0
11
18
21
195
31
0
0
LINE
5
206
100
AcDbEntity
8
0
100
AcDbLine
10
18
20
195
30
0
11
0
21
195
31
0
0
LINE
5
207
100
AcDbEntity
8
0
100
AcDbLine
10
0
20
195
30
0
11
0
21
150
31
0
0
LWPOLYLINE
5
208
100
AcDbEntity
8
0
100
AcDbPolyline
90
4
70
1
43
0.0
10
4.9999571842038915
20
161.8562497615028
10
5
20
150.19999999999999
10
1.0000000000269849
20
150.19998530717959
10
0.99995718423087632
20
161.85623506868237
0
LWPOLYLINE
5
209
100
AcDbEntity
8
0
100
AcDbPolyline
90
4
70
1
43
0.0
10
8.9999677374925842
20
158.98320336335931
10
9
20
150.19999999999999
10
5.0000000000269846
20
150.19998530717959
10
4.9999677375195688
20
158.98318867053891
0
LINE
5
210
100
AcDbEntity
8
0
100
AcDbLine
10
185.55000000000001
20
48.000000000000014
30
0
11
199.05000000000001
21
48.000000000000014
31
0
0
LINE
5
211
100
AcDbEntity
8
0
100
AcDbLine
10
199.05000000000001
20
48.000000000000014
30
0
11
199.05000000000001
21
87.000000000000014
31
0
0
LINE
5
212
100
AcDbEntity
8
0
100
AcDbLine
10
199.05000000000001
20
87.000000000000014
30
0
11
185.55000000000001
21
87.000000000000014
31
0
0
LINE
5
213
100
AcDbEntity
8
0
100
AcDbLine
10
185.55000000000001
20
87.000000000000014
30
0
11
185.55000000000001
21
48.000000000000014
31
0
0
LWPOLYLINE
5
214
100
AcDbEntity
8
0
100
AcDbPolyline
90
4
70
1
43
0.0
10
190.54996619503342
20
57.403125238356495
10
190.55000000000001
20
48.200000000000003
10
186.55000000002698
20
48.199985307179595
10
186.54996619506039
20
57.40311054553608
0
LWPOLYLINE
5
215
100
AcDbEntity
8
0
100
AcDbPolyline
90
4
70
1
43
0.0
10
194.54996666136049
20
57.2761715173109
10
194.55000000000001
20
48.200000000000003
10
190.55000000002701
20
48.199985307179595
10
190.54996666138746
20
57.276156824490492
0
LINE
5
216
100
AcDbEntity
8
0
100
AcDbLine
10
18
20
150
30
0
11
51.000000000000007
21
150
31
0
0
LINE
5
217
100
AcDbEntity
8
0
100
AcDbLine
10
51.000000000000007
20
150
30
0
11
51.000000000000007
21
189.00000000000003
31
0
0
LINE
5
218
100
AcDbEntity
8
0
100
AcDbLine
10
51.000000000000007
20
189.00000000000003
30
0
11
18
21
189.00000000000003
31
0
0
LINE
5
219
100
AcDbEntity
8
0
100
AcDbLine
10
18
20
189.00000000000003
30
0
11
18
21
150
31
0
0
LWPOLYLINE
5
220
100
AcDbEntity
8
0
100
AcDbPolyline
90
4
70
1
43
0.0
10
22.999969480829286
20
158.5085942267811
10
23.000000000000004
20
150.19999999999999
10
19.000000000026986
20
150.19998530717959
10
18.999969480856272
20
158.5085795339607
0
LWPOLYLINE
5
221
100
AcDbEntity
8
0
100
AcDbPolyline
90
4
70
1
43
0.0
10
26.999980091515312
20
155.61992187496344
10
27
20
150.19999999999999
10
23.000000000026986
20
150.19998530717959
10
22.999980091542298
20
155.61990718214301
0
LINE
5
222
100
AcDbEntity
8
0
100
AcDbLine
10
51.000000000000007
20
150
30
0
11
79.5
21
150
31
0
0
LINE
5
223
100
AcDbEntity
8
0
100
AcDbLine
10
79.5
20
150
30
0
11
79.5
21
187.19999999999999
31
0
0
LINE
5
224
100
AcDbEntity
8
0
100
AcDbLine
10
79.5
20
187.19999999999999
30
0
11
51.000000000000007
21
187.19999999999999
31
0
0
LINE
5
225
100
AcDbEntity
8
0
100
AcDbLine
10
51.000000000000007
20
187.19999999999999
30
0
11
51.000000000000007
21
150
31
0
0
LWPOLYLINE
5
226
100
AcDbEntity
8
0
100
AcDbPolyline
90
4
70
1
43
0.0
10
55.999963296645454
20
160.19218761914189
10
56.000000000000007
20
150.19999999999999
10
52.000000000026994
20
150.19998530717959
10
51.999963296672433
20
160.19217292632146
0
LWPOLYLINE
5
227
100
AcDbEntity
8
0
100
AcDbPolyline
90
4
70
1
43
0.0
10
59.999960412602427
20
160.9773447036016
10
59.999999999999993
20
150.19999999999999
10
56.000000000026979
20
150.19998530717959
10
55.999960412629413
20
160.9773300107812
0
LINE
5
228
100
AcDbEntity
8
0
100
AcDbLine
10
79.5
20
150
30
0
11
108
21
150
31
0
0
LINE
5
229
100
AcDbEntity
8
0
100
AcDbLine
10
108
20
150
30
0
11
108
21
187.19999999999999
31
0
0
LINE
5
230
100
AcDbEntity
8
0
100
AcDbLine
10
108
20
187.19999999999999
30
0
11
79.5
21
187.19999999999999
31
0
0
LINE
5
231
100
AcDbEntity
8
0
100
AcDbLine
10
79.5
20
187.19999999999999
30
0
11
79.5
21
150
31
0
0
LWPOLYLINE
5
232
100
AcDbEntity
8
0
100
AcDbPolyline
90
4
70
1
43
0.0
10
84.499963296645433
20
160.19218761914189
10
84.5
20
150.19999999999999
10
80.500000000026972
20
150.19998530717959
10
80.499963296672433
20
160.19217292632146
0
LWPOLYLINE
5
233
100
AcDbEntity
8
0
100
AcDbPolyline
90
4
70
1
43
0.0
10
88.499960412602434
20
160.9773447036016
10
88.5
20
150.19999999999999
10
84.500000000026972
20
150.19998530717959
10
84.49996041262942
20
160.9773300107812
0
LINE
5
234
100
AcDbEntity
8
0
100
AcDbLine
10
108
20
150
30
0
11
136.5
21
150
31
0
0
LINE
5
235
100
AcDbEntity
8
0
100
AcDbLine
10
136.5
20
150
30
0
11
136.5
21
187.19999999999999
31
0
0
LINE
5
236
100
AcDbEntity
8
0
100
AcDbLine
10
136.5
20
187.19999999999999
30
0
11
108
21
187.19999999999999
31
0
0
LINE
5
237
100
AcDbEntity
8
0
100
AcDbLine
10
108
20
187.19999999999999
30
0
11
108
21
150
31
0
0
LWPOLYLINE
5
238
100
AcDbEntity
8
0
100
AcDbPolyline
90
4
70
1
43
0.0
10
112.99996329664545
20
160.19218761914189
10
113
20
150.19999999999999
10
109.00000000002699
20
150.19998530717959
10
108.99996329667245
20
160.19217292632146
0
LWPOLYLINE
5
239
100
AcDbEntity
8
0
100
AcDbPolyline
90
4
70
1
43
0.0
10
116.99996041260246
20
160.9773447036016
10
117.00000000000001
20
150.19999999999999
10
113.00000000002699
20
150.19998530717959
10
112.99996041262943
20
160.9773300107812
0
LINE
5
240
100
AcDbEntity
8
0
100
AcDbLine
10
136.5
20
150
30
0
11
165
21
150
31
0
0
LINE
5
241
100
AcDbEntity
8
0
100
AcDbLine
10
165
20
150
30
0
11
165
21
187.19999999999999
31
0
0
LINE
5
242
100
AcDbEntity
8
0
100
AcDbLine
10
165
20
187.19999999999999
30
0
11
136.5
21
187.19999999999999
31
0
0
LINE
5
243
100
AcDbEntity
8
0
100
AcDbLine
10
136.5
20
187.19999999999999
30
0
11
136.5
21
150
31
0
0
LWPOLYLINE
5
244
100
AcDbEntity
8
0
100
AcDbPolyline
90
4
70
1
43
0.0
10
141.49996329664543
20
160.19218761914189
10
141.5
20
150.19999999999999
10
137.50000000002697
20
150.19998530717959
10
137.49996329667243
20
160.19217292632146
0
LWPOLYLINE
5
245
100
AcDbEntity
8
0
100
AcDbPolyline
90
4
70
1
43
0.0
10
145.49996041260246
20
160.9773447036016
10
145.5
20
150.19999999999999
10
141.500000000027
20
150.19998530717959
10
141.49996041262943
20
160.9773300107812
0
LINE
5
246
100
AcDbEntity
8
0
100
AcDbLine
10
165
20
150
30
0
11
193.5
21
150
31
0
0
LINE
5
247
100
AcDbEntity
8
0
100
AcDbLine
10
193.5
20
150
30
0
11
193.5
21
187.19999999999999
31
0
0
LINE
5
248
100
AcDbEntity
8
0
100
AcDbLine
10
193.5
20
187.19999999999999
30
0
11
165
21
187.19999999999999
31
0
0
LINE
5
249
100
AcDbEntity
8
0
100
AcDbLine
10
165
20
187.19999999999999
30
0
11
165
21
150
31
0
0
LWPOLYLINE
5
250
100
AcDbEntity
8
0
100
AcDbPolyline
90
4
70
1
43
0.0
10
169.99996329664543
20
160.19218761914189
10
170
20
150.19999999999999
10
166.00000000002697
20
150.19998530717959
10
165.99996329667243
20
160.19217292632146
0
LWPOLYLINE
5
251
100
AcDbEntity
8
0
100
AcDbPolyline
90
4
70
1
43
0.0
10
173.99996041260243
20
160.9773447036016
10
174.00000000000003
20
150.19999999999999
10
170.000000000027
20
150.19998530717959
10
169.99996041262943
20
160.9773300107812
0
LINE
5
252
100
AcDbEntity
8
0
100
AcDbLine
10
200.55000000000001
20
0
30
0
11
229.05000000000001
21
0
31
0
0
LINE
5
253
100
AcDbEntity
8
0
100
AcDbLine
10
229.05000000000001
20
0
30
0
11
229.05000000000001
21
37.199999999999996
31
0
0
LINE
5
254
100
AcDbEntity
8
0
100
AcDbLine
10
229.05000000000001
20
37.199999999999996
30
0
11
200.55000000000001
21
37.199999999999996
31
0
0
LINE
5
255
100
AcDbEntity
8
0
100
AcDbLine
10
200.55000000000001
20
37.199999999999996
30
0
11
200.55000000000001
21
0
31
0
0
LWPOLYLINE
5
256
100
AcDbEntity
8
0
100
AcDbPolyline
90
4
70
1
43
0.0
10
205.54996329664544
20
10.19218761914188
10
205.55000000000001
20
0.20000000000000001
10
201.55000000002698
20
0.19998530717958762
10
201.54996329667242
20
10.192172926321465
0
LWPOLYLINE
5
257
100
AcDbEntity
8
0
100
AcDbPolyline
90
4
70
1
43
0.0
10
209.54996041260245
20
10.977344703601609
10
209.55000000000001
20
0.20000000000000001
10
205.55000000002701
20
0.19998530717958651
10
205.54996041262942
20
10.977330010781197
0
LINE
5
258
100
AcDbEntity
8
0
100
AcDbLine
10
200.55000000000001
20
37.199999999999996
30
0
11
229.05000000000001
21
37.199999999999996
31
0
0
LINE
5
259
100
AcDbEntity
8
0
100
AcDbLine
10
229.05000000000001
20
37.199999999999996
30
0
11
229.05000000000001
21
74.399999999999991
31
0
0
LINE
5
260
100
AcDbEntity
8
0
100
AcDbLine
10
229.05000000000001
20
74.399999999999991
30
0
11
200.55000000000001
21
74.399999999999991
31
0
0
LINE
5
261
100
AcDbEntity
8
0
100
AcDbLine
10
200.55000000000001
20
74.399999999999991
30
0
11
200.55000000000001
21
37.199999999999996
31
0
0
LWPOLYLINE
5
262
100
AcDbEntity
8
0
100
AcDbPolyline
90
4
70
1
43
0.0
10
205.54996329664544
20
47.392187619141879
10
205.55000000000001
20
37.399999999999999
10
201.55000000002698
20
37.399985307179584
10
201.54996329667242
20
47.392172926321464
0
LWPOLYLINE
5
263
100
AcDbEntity
8
0
100
AcDbPolyline
90
4
70
1
43
0.0
10
209.54996041260245
20
48.177344703601612
10
209.55000000000001
20
37.399999999999999
10
205.55000000002701
20
37.399985307179584
10
205.54996041262942
20
48.177330010781191
0
LINE
5
264
100
AcDbEntity
8
0
100
AcDbLine
10
200.55000000000001
20
74.399999999999991
30
0
11
229.05000000000001
21
74.399999999999991
31
0
0
LINE
5
265
100
AcDbEntity
8
0
100
AcDbLine
10
229.05000000000001
20
74.399999999999991
30
0
11
229.05000000000001
21
111.59999999999999
31
0
0
LINE
5
266
100
AcDbEntity
8
0
100
AcDbLine
10
229.05000000000001
20
111.59999999999999
30
0
11
200.55000000000001
21
111.59999999999999
31
0
0
LINE
5
267
100
AcDbEntity
8
0
100
AcDbLine
10
200.55000000000001
20
111.59999999999999
30
0
11
200.55000000000001
21
74.399999999999991
31
0
0
LWPOLYLINE
5
268
100
AcDbEntity
8
0
100
AcDbPolyline
90
4
70
1
43
0.0
10
205.54996329664544
20
84.592187619141882
10
205.55000000000001
20
74.599999999999994
10
201.55000000002698
20
74.599985307179594
10
201.54996329667242
20
84.592172926321467
0
LWPOLYLINE
5
269
100
AcDbEntity
8
0
100
AcDbPolyline
90
4
70
1
43
0.0
10
209.54996041260245
20
85.377344703601608
10
209.55000000000001
20
74.599999999999994
10
205.55000000002701
20
74.599985307179594
10
205.54996041262942
20
85.377330010781208
0
LINE
5
270
100
AcDbEntity
8
0
100
AcDbLine
10
200.55000000000001
20
111.59999999999999
30
0
11
229.05000000000001
21
111.59999999999999
31
0
0
LINE
5
271
100
AcDbEntity
8
0
100
AcDbLine
10
229.05000000000001
20
111.59999999999999
30
0
11
229.05000000000001
21
148.80000000000001
31
0
0
LINE
5
272
100
AcDbEntity
8
0
100
AcDbLine
10
229.05000000000001
20
148.80000000000001
30
0
11
200.55000000000001
21
148.80000000000001
31
0
0
LINE
5
273
100
AcDbEntity
8
0
100
AcDbLine
10
200.55000000000001
20
148.80000000000001
30
0
11
200.55000000000001
21
111.59999999999999
31
0
0
LWPOLYLINE
5
274
100
AcDbEntity
8
0
100
AcDbPolyline
90
4
70
1
43
0.0
10
205.54996329664544
20
121.79218761914187
10
205.55000000000001
20
111.8
10
201.55000000002698
20
111.79998530717958
10
201.54996329667242
20
121.79217292632146
0
LWPOLYLINE
5
275
100
AcDbEntity
8
0
100
AcDbPolyline
90
4
70
1
43
0.0
10
209.54996041260245
20
122.57734470360161
10
209.55000000000001
20
111.8
10
205.55000000002701
20
111.79998530717958
10
205.54996041262942
20
122.5773300107812
0
LINE
5
276
100
AcDbEntity
8
0
100
AcDbLine
10
200.55000000000001
20
148.80000000000001
30
0
11
229.05000000000001
21
148.80000000000001
31
0
0
LINE
5
277
100
AcDbEntity
8
0
100
AcDbLine
10
229.05000000000001
20
148.80000000000001
30
0
11
229.05000000000001
21
186
31
0
0
LINE
5
278
100
AcDbEntity
8
0
100
AcDbLine
10
229.05000000000001
20
186
30
0
11
200.55000000000001
21
186
31
0
0
LINE
5
279
100
AcDbEntity
8
0
100
AcDbLine
10
200.55000000000001
20
186
30
0
11
200.55000000000001
21
148.80000000000001
31
0
0
LWPOLYLINE
5
280
100
AcDbEntity
8
0
100
AcDbPolyline
90
4
70
1
43
0.0
10
205.54996329664544
20
158.99218761914187
10
205.55000000000001
20
149
10
201.55000000002698
20
148.9999853071796
10
201.54996329667242
20
158.99217292632147
0
LWPOLYLINE
5
281
100
AcDbEntity
8
0
100
AcDbPolyline
90
4
70
1
43
0.0
10
209.54996041260245
20
159.77734470360161
10
209.55000000000001
20
149
10
205.55000000002701
20
148.9999853071796
10
205.54996041262942
20
159.77733001078118
0
LINE
5
282
100
AcDbEntity
8
0
100
AcDbLine
10
229.05000000000001
20
0
30
0
11
257.55000000000007
21
0
31
0
0
LINE
5
283
100
AcDbEntity
8
0
100
AcDbLine
10
257.55000000000007
20
0
30
0
11
257.55000000000007
21
37.199999999999996
31
0
0
LINE
5
284
100
AcDbEntity
8
0
100
AcDbLine
10
257.55000000000007
20
37.199999999999996
30
0
11
229.05000000000001
21
37.199999999999996
31
0
0
LINE
5
285
100
AcDbEntity
8
0
100
AcDbLine
10
229.05000000000001
20
37.199999999999996
30
0
11
229.05000000000001
21
0
31
0
0
LWPOLYLINE
5
286
100
AcDbEntity
8
0
100
AcDbPolyline
90
4
70
1
43
0.0
10
234.04996329664544
20
10.19218761914188
10
234.05000000000001
20
0.20000000000000001
10
230.05000000002698
20
0.19998530717958762
10
230.04996329667244
20
10.192172926321465
0
LWPOLYLINE
5
287
100
AcDbEntity
8
0
100
AcDbPolyline
90
4
70
1
43
0.0
10
238.0499604126025
20
10.977344703601609
10
238.05000000000007
20
0.20000000000000001
10
234.05000000002704
20
0.19998530717958651
10
234.04996041262947
20
10.977330010781197
0
LINE
5
288
100
AcDbEntity
8
0
100
AcDbLine
10
229.05000000000001
20
37.199999999999996
30
0
11
257.55000000000007
21
37.199999999999996
31
0
0
LINE
5
289
100
AcDbEntity
8
0
100
AcDbLine
10
257.55000000000007
20
37.199999999999996
30
0
11
257.55000000000007
21
74.399999999999991
31
0
0
LINE
5
290
100
AcDbEntity
8
0
100
AcDbLine
10
257.55000000000007
20
74.399999999999991
30
0
11
229.05000000000001
21
74.399999999999991
31
0
0
LINE
5
291
100
AcDbEntity
8
0
100
AcDbLine
10
229.05000000000001
20
74.399999999999991
30
0
11
229.05000000000001
21
37.199999999999996
31
0
0
LWPOLYLINE
5
292
100
AcDbEntity
8
0
100
AcDbPolyline
90
4
70
1
43
0.0
10
234.04996329664544
20
47.392187619141879
10
234.05000000000001
20
37.399999999999999
10
230.05000000002698
20
37.399985307179584
10
230.04996329667244
20
47.392172926321464
0
LWPOLYLINE
5
293
100
AcDbEntity
8
0
100
AcDbPolyline
90
4
70
1
43
0.0
10
238.0499604126025
20
48.177344703601612
10
238.05000000000007
20
37.399999999999999
10
234.05000000002704
20
37.399985307179584
10
234.04996041262947
20
48.177330010781191
0
LINE
5
294
100
AcDbEntity
8
0
100
AcDbLine
10
229.05000000000001
20
74.399999999999991
30
0
11
257.55000000000007
21
74.399999999999991
31
0
0
LINE
5
295
100
AcDbEntity
8
0
100
AcDbLine
10
257.55000000000007
20
74.399999999999991
30
0
11
257.55000000000007
21
111.59999999999999
31
0
0
LINE
5
296
100
AcDbEntity
8
0
100
AcDbLine
10
257.55000000000007
20
111.59999999999999
30
0
11
229.05000000000001
21
111.59999999999999
31
0
0
LINE
5
297
100
AcDbEntity
8
0
100
AcDbLine
10
229.05000000000001
20
111.59999999999999
30
0
11
229.05000000000001
21
74.399999999999991
31
0
0
LWPOLYLINE
5
298
100
AcDbEntity
8
0
100
AcDbPolyline
90
4
70
1
43
0.0
10
234.04996329664544
20
84.592187619141882
10
234.05000000000001
20
74.599999999999994
10
230.05000000002698
20
74.599985307179594
10
230.04996329667244
20
84.592172926321467
0
LWPOLYLINE
5
299
100
AcDbEntity
8
0
100
AcDbPolyline
90
4
70
1
43
0.0
10
238.0499604126025
20
85.377344703601608
10
238.05000000000007
20
74.599999999999994
10
234.05000000002704
20
74.599985307179594
10
234.04996041262947
20
85.377330010781208
0
LINE
5
300
100
AcDbEntity
8
0
100
AcDbLine
10
229.05000000000001
20
111.59999999999999
30
0
11
257.55000000000007
21
111.59999999999999
31
0
0
LINE
5
301
100
AcDbEntity
8
0
100
AcDbLine
10
257.55000000000007
20
111.59999999999999
30
0
11
257.55000000000007
21
148.80000000000001
31
0
0
LINE
5
302
100
AcDbEntity
8
0
100
AcDbLine
10
257.55000000000007
20
148.80000000000001
30
0
11
229.05000000000001
21
148.80000000000001
31
0
0
LINE
5
303
100
AcDbEntity
8
0
100
AcDbLine
10
229.05000000000001
20
148.80000000000001
30
0
11
229.05000000000001
21
111.59999999999999
31
0
0
LWPOLYLINE
5
304
100
AcDbEntity
8
0
100
AcDbPolyline
90
4
70
1
43
0.0
10
234.04996329664544
20
121.79218761914187
10
234.05000000000001
20
111.8
10
230.05000000002698
20
111.79998530717958
10
230.04996329667244
20
121.79217292632146
0
LWPOLYLINE
5
305
100
AcDbEntity
8
0
100
AcDbPolyline
90
4
70
1
43
0.0
10
238.0499604126025
20
122.57734470360161
10
238.05000000000007
20
111.8
10
234.05000000002704
20
111.79998530717958
10
234.04996041262947
20
122.5773300107812
0
LINE
5
306
100
AcDbEntity
8
0
100
AcDbLine
10
229.05000000000001
20
148.80000000000001
30
0
11
257.55000000000007
21
148.80000000000001
31
0
0
LINE
5
307
100
AcDbEntity
8
0
100
AcDbLine
10
257.55000000000007
20
148.80000000000001
30
0
11
257.55000000000007
21
186
31
0
0
LINE
5
308
100
AcDbEntity
8
0
100
AcDbLine
10
257.55000000000007
20
186
30
0
11
229.05000000000001
21
186
31
0
0
LINE
5
309
100
AcDbEntity
8
0
100
AcDbLine
10
229.05000000000001
20
186
30
0
11
229.05000000000001
21
148.80000000000001
31
0
0
LWPOLYLINE
5
310
100
AcDbEntity
8
0
100
AcDbPolyline
90
4
70
1
43
0.0
10
234.04996329664544
20
158.99218761914187
10
234.05000000000001
20
149
10
230.05000000002698
20
148.9999853071796
10
230.04996329667244
20
158.99217292632147
0
LWPOLYLINE
5
311
100
AcDbEntity
8
0
100
AcDbPolyline
90
4
70
1
43
0.0
10
238.0499604126025
20
159.77734470360161
10
238.05000000000007
20
149
10
234.05000000002704
20
148.9999853071796
10
234.04996041262947
20
159.77733001078118
0
LINE
5
312
100
AcDbEntity
8
0
100
AcDbLine
10
0
20
195
30
0
11
28.5
21
195
31
0
0
LINE
5
313
100
AcDbEntity
8
0
100
AcDbLine
10
28.5
20
195
30
0
11
28.5
21
232.19999999999999
31
0
0
LINE
5
314
100
AcDbEntity
8
0
100
AcDbLine
10
28.5
20
232.19999999999999
30
0
11
0
21
232.19999999999999
31
0
0
LINE
5
315
100
AcDbEntity
8
0
100
AcDbLine
10
0
20
232.19999999999999
30
0
11
0
21
195
31
0
0
LWPOLYLINE
5
316
100
AcDbEntity
8
0
100
AcDbPolyline
90
4
70
1
43
0.0
10
4.9999632966454453
20
205.19218761914189
10
5
20
195.19999999999999
10
1.0000000000269849
20
195.19998530717959
10
0.99996329667242978
20
205.19217292632146
0
LWPOLYLINE
5
317
100
AcDbEntity
8
0
100
AcDbPolyline
90
4
70
1
43
0.0
10
8.9999604126024355
20
205.9773447036016
10
9
20
195.19999999999999
10
5.0000000000269846
20
195.19998530717959
10
4.9999604126294201
20
205.9773300107812
0
LINE
5
318
100
AcDbEntity
8
0
100
AcDbLine
10
28.5
20
195
30
0
11
56.999999999999993
21
195
31
0
0
LINE
5
319
100
AcDbEntity
8
0
100
AcDbLine
10
56.999999999999993
20
195
30
0
11
56.999999999999993
21
232.19999999999999
31
0
0
LINE
5
320
100
AcDbEntity
8
0
100
AcDbLine
10
56.999999999999993
20
232.19999999999999
30
0
11
28.5
21
232.19999999999999
31
0
0
LINE
5
321
100
AcDbEntity
8
0
100
AcDbLine
10
28.5
20
232.19999999999999
30
0
11
28.5
21
195
31
0
0
LWPOLYLINE
5
322
100
AcDbEntity
8
0
100
AcDbPolyline
90
4
70
1
43
0.0
10
33.499963296645447
20
205.19218761914189
10
33.5
20
195.19999999999999
10
29.500000000026986
20
195.19998530717959
10
29.49996329667243
20
205.19217292632146
0
LWPOLYLINE
5
323
100
AcDbEntity
8
0
100
AcDbPolyline
90
4
70
1
43
0.0
10
37.499960412602434
20
205.9773447036016
10
37.5
20
195.19999999999999
10
33.500000000026986
20
195.19998530717959
10
33.49996041262942
20
205.9773300107812
0
LINE
5
324
100
AcDbEntity
8
0
100
AcDbLine
10
56.999999999999993
20
195
30
0
11
85.499999999999986
21
195
31
0
0
LINE
5
325
100
AcDbEntity
8
0
100
AcDbLine
10
85.499999999999986
20
195
30
0
11
85.499999999999986
21
232.19999999999999
31
0
0
LINE
5
326
100
AcDbEntity
8
0
100
AcDbLine
10
85.499999999999986
20
232.19999999999999
30
0
11
56.999999999999993
21
232.19999999999999
31
0
0
LINE
5
327
100
AcDbEntity
8
0
100
AcDbLine
10
56.999999999999993
20
232.19999999999999
30
0
11
56.999999999999993
21
195
31
0
0
LWPOLYLINE
5
328
100
AcDbEntity
8
0
100
AcDbPolyline
90
4
70
1
43
0.0
10
61.99996329664544
20
205.19218761914189
10
61.999999999999993
20
195.19999999999999
10
58.000000000026979
20
195.19998530717959
10
57.999963296672419
20
205.19217292632146
0
LWPOLYLINE
5
329
100
AcDbEntity
8
0
100
AcDbPolyline
90
4
70
1
43
0.0
10
65.999960412602434
20
205.9773447036016
10
66
20
195.19999999999999
10
62.000000000026986
20
195.19998530717959
10
61.99996041262942
20
205.9773300107812
0
LINE
5
330
100
AcDbEntity
8
0
100
AcDbLine
10
85.499999999999986
20
195
30
0
11
114
21
195
31
0
0
LINE
5
331
100
AcDbEntity
8
0
100
AcDbLine
10
114
20
195
30
0
11
114
21
232.19999999999999
31
0
0
LINE
5
332
100
AcDbEntity
8
0
100
AcDbLine
10
114
20
232.19999999999999
30
0
11
85.499999999999986
21
232.19999999999999
31
0
0
LINE
5
333
100
AcDbEntity
8
0
100
AcDbLine
10
85.499999999999986
20
232.19999999999999
30
0
11
85.499999999999986
21
195
31
0
0
LWPOLYLINE
5
334
100
AcDbEntity
8
0
100
AcDbPolyline
90
4
70
1
43
0.0
10
90.499963296645447
20
205.19218761914189
10
90.5
20
195.19999999999999
10
86.500000000026986
20
195.19998530717959
10
86.499963296672448
20
205.19217292632146
0
LWPOLYLINE
5
335
100
AcDbEntity
8
0
100
AcDbPolyline
90
4
70
1
43
0.0
10
94.499960412602462
20
205.9773447036016
10
94.500000000000014
20
195.19999999999999
10
90.500000000026986
20
195.19998530717959
10
90.499960412629434
20
205.9773300107812
0
LINE
5
336
100
AcDbEntity
8
0
100
AcDbLine
10
114
20
195
30
0
11
133.5
21
195
31
0
0
LINE
5
337
100
AcDbEntity
8
0
100
AcDbLine
10
133.5
20
195
30
0
11
133.5
21
232.19999999999999
31
0
0
LINE
5
338
100
AcDbEntity
8
0
100
AcDbLine
10
133.5
20
232.19999999999999
30
0
11
114
21
232.19999999999999
31
0
0
LINE
5
339
100
AcDbEntity
8
0
100
AcDbLine
10
114
20
232.19999999999999
30
0
11
114
21
195
31
0
0
LWPOLYLINE
5
340
100
AcDbEntity
8
0
100
AcDbPolyline
90
4
70
1
43
0.0
10
118.99996329664545
20
205.19218761914189
10
119
20
195.19999999999999
10
115.00000000002699
20
195.19998530717959
10
114.99996329667243
20
205.19217292632146
0
LWPOLYLINE
5
341
100
AcDbEntity
8
0
100
AcDbPolyline
90
4
70
1
43
0.0
10
122.99996666136047
20
204.2761715173109
10
123
20
195.19999999999999
10
119.00000000002699
20
195.19998530717959
10
118.99996666138746
20
204.27615682449047
0
LINE
5
342
100
AcDbEntity
8
0
100
AcDbLine
10
133.5
20
195
30
0
11
152.99999999999997
21
195
31
0
0
LINE
5
343
100
AcDbEntity
8
0
100
AcDbLine
10
152.99999999999997
20
195
30
0
11
152.99999999999997
21
232.19999999999999
31
0
0
LINE
5
344
100
AcDbEntity
8
0
100
AcDbLine
10
152.99999999999997
20
232.19999999999999
30
0
11
133.5
21
232.19999999999999
31
0
0
LINE
5
345
100
AcDbEntity
8
0
100
AcDbLine
10
133.5
20
232.19999999999999
30
0
11
133.5
21
195
31
0
0
LWPOLYLINE
5
346
100
AcDbEntity
8
0
100
AcDbPolyline
90
4
70
1
43
0.0
10
138.49996329664543
20
205.19218761914189
10
138.5
20
195.19999999999999
10
134.50000000002697
20
195.19998530717959
10
134.49996329667243
20
205.19217292632146
0
LWPOLYLINE
5
347
100
AcDbEntity
8
0
100
AcDbPolyline
90
4
70
1
43
0.0
10
142.49996666136045
20
204.2761715173109
10
142.49999999999997
20
195.19999999999999
10
138.50000000002697
20
195.19998530717959
10
138.49996666138742
20
204.27615682449047
0
LINE
5
348
100
AcDbEntity
8
0
100
AcDbLine
10
152.99999999999997
20
195
30
0
11
172.49999999999997
21
195
31
0
0
LINE
5
349
100
AcDbEntity
8
0
100
AcDbLine
10
172.49999999999997
20
195
30
0
11
172.49999999999997
21
232.19999999999999
31
0
0
LINE
5
350
100
AcDbEntity
8
0
100
AcDbLine
10
172.49999999999997
20
232.19999999999999
30
0
11
152.99999999999997
21
232.19999999999999
31
0
0
LINE
5
351
100
AcDbEntity
8
0
100
AcDbLine
10
152.99999999999997
20
232.19999999999999
30
0
11
152.99999999999997
21
195
31
0
0
LWPOLYLINE
5
352
100
AcDbEntity
8
0
100
AcDbPolyline
90
4
70
1
43
0.0
10
157.9999632966454
20
205.19218761914189
10
157.99999999999997
20
195.19999999999999
10
154.00000000002694
20
195.19998530717959
10
153.99996329667241
20
205.19217292632146
0
LWPOLYLINE
5
353
100
AcDbEntity
8
0
100
AcDbPolyline
90
4
70
1
43
0.0
10
161.99996666136042
20
204.2761715173109
10
161.99999999999994
20
195.19999999999999
10
158.00000000002694
20
195.19998530717959
10
157.99996666138742
20
204.27615682449047
0
LINE
5
354
100
AcDbEntity
8
0
100
AcDbLine
10
172.49999999999997
20
195
30
0
11
192.00000000000003
21
195
31
0
0
LINE
5
355
100
AcDbEntity
8
0
100
AcDbLine
10
192.00000000000003
20
195
30
0
11
192.00000000000003
21
232.19999999999999
31
0
0
LINE
5
356
100
AcDbEntity
8
0
100
AcDbLine
10
192.00000000000003
20
232.19999999999999
30
0
11
172.49999999999997
21
232.19999999999999
31
0
0
LINE
5
357
100
AcDbEntity
8
0
100
AcDbLine
10
172.49999999999997
20
232.19999999999999
30
0
11
172.49999999999997
21
195
31
0
0
LWPOLYLINE
5
358
100
AcDbEntity
8
0
100
AcDbPolyline
90
4
70
1
43
0.0
10
177.4999632966454
20
205.19218761914189
10
177.49999999999997
20
195.19999999999999
10
173.50000000002694
20
195.19998530717959
10
173.49996329667238
20
205.19217292632146
0
LWPOLYLINE
5
359
100
AcDbEntity
8
0
100
AcDbPolyline
90
4
70
1
43
0.0
10
181.49996666136047
20
204.2761715173109
10
181.50000000000003
20
195.19999999999999
10
177.500000000027
20
195.19998530717959
10
177.49996666138745
20
204.27615682449047
0
LINE
5
360
100
AcDbEntity
8
0
100
AcDbLine
10
192.00000000000003
20
195
30
0
11
211.5
21
195
31
0
0
LINE
5
361
100
AcDbEntity
8
0
100
AcDbLine
10
211.5
20
195
30
0
11
211.5
21
232.19999999999999
31
0
0
LINE
5
362
100
AcDbEntity
8
0
100
AcDbLine
10
211.5
20
232.19999999999999
30
0
11
192.00000000000003
21
232.19999999999999
31
0
0
LINE
5
363
100
AcDbEntity
8
0
100
AcDbLine
10
192.00000000000003
20
232.19999999999999
30
0
11
192.00000000000003
21
195
31
0
0
LWPOLYLINE
5
364
100
AcDbEntity
8
0
100
AcDbPolyline
90
4
70
1
43
0.0
10
196.99996329664546
20
205.19218761914189
10
197.00000000000003
20
195.19999999999999
10
193.000000000027
20
195.19998530717959
10
192.99996329667243
20
205.19217292632146
0
LWPOLYLINE
5
365
100
AcDbEntity
8
0
100
AcDbPolyline
90
4
70
1
43
0.0
10
200.99996666136047
20
204.2761715173109
10
201
20
195.19999999999999
10
197.000000000027
20
195.19998530717959
10
196.99996666138745
20
204.27615682449047
0
LINE
5
366
100
AcDbEntity
8
0
100
AcDbLine
10
211.5
20
195
30
0
11
230.99999999999997
21
195
31
0
0
LINE
5
367
100
AcDbEntity
8
0
100
AcDbLine
10
230.99999999999997
20
195
30
0
11
230.99999999999997
21
232.19999999999999
31
0
0
LINE
5
368
100
AcDbEntity
8
0
100
AcDbLine
10
230.99999999999997
20
232.19999999999999
30
0
11
211.5
21
232.19999999999999
31
0
0
LINE
5
369
100
AcDbEntity
8
0
100
AcDbLine
10
211.5
20
232.19999999999999
30
0
11
211.5
21
195
31
0
0
LWPOLYLINE
5
370
100
AcDbEntity
8
0
100
AcDbPolyline
90
4
70
1
43
0.0
10
216.49996329664543
20
205.19218761914189
10
216.5
20
195.19999999999999
10
212.50000000002697
20
195.19998530717959
10
212.49996329667241
20
205.19217292632146
0
LWPOLYLINE
5
371
100
AcDbEntity
8
0
100
AcDbPolyline
90
4
70
1
43
0.0
10
220.49996666136047
20
204.2761715173109
10
220.5
20
195.19999999999999
10
216.500000000027
20
195.19998530717959
10
216.49996666138745
20
204.27615682449047
0
LINE
5
372
100
AcDbEntity
8
0
100
AcDbLine
10
230.99999999999997
20
195
30
0
11
250.49999999999997
21
195
31
0
0
LINE
5
373
100
AcDbEntity
8
0
100
AcDbLine
10
250.49999999999997
20
195
30
0
11
250.49999999999997
21
232.19999999999999
31
0
0
LINE
5
374
100
AcDbEntity
8
0
100
AcDbLine
10
250.49999999999997
20
232.19999999999999
30
0
11
230.99999999999997
21
232.19999999999999
31
0
0
LINE
5
375
100
AcDbEntity
8
0
100
AcDbLine
10
230.99999999999997
20
232.19999999999999
30
0
11
230.99999999999997
21
195
31
0
0
LWPOLYLINE
5
376
100
AcDbEntity
8
0
100
AcDbPolyline
90
4
70
1
43
0.0
10
235.99996329664543
20
205.19218761914189
10
235.99999999999997
20
195.19999999999999
10
232.00000000002694
20
195.19998530717959
10
231.99996329667241
20
205.19217292632146
0
LWPOLYLINE
5
377
100
AcDbEntity
8
0
100
AcDbPolyline
90
4
70
1
43
0.0
10
239.99996666136047
20
204.2761715173109
10
240.00000000000003
20
195.19999999999999
10
236.000000000027
20
195.19998530717959
10
235.99996666138748
20
204.27615682449047
0
LINE
5
378
100
AcDbEntity
8
0
100
AcDbLine
10
257.55000000000007
20
0
30
0
11
277.05000000000001
21
0
31
0
0
LINE
5
379
100
AcDbEntity
8
0
100
AcDbLine
10
277.05000000000001
20
0
30
0
11
277.05000000000001
21
37.199999999999996
31
0
0
LINE
5
380
100
AcDbEntity
8
0
100
AcDbLine
10
277.05000000000001
20
37.199999999999996
30
0
11
257.55000000000007
21
37.199999999999996
31
0
0
LINE
5
381
100
AcDbEntity
8
0
100
AcDbLine
10
257.55000000000007
20
37.199999999999996
30
0
11
257.55000000000007
21
0
31
0
0
LWPOLYLINE
5
382
100
AcDbEntity
8
0
100
AcDbPolyline
90
4
70
1
43
0.0
10
262.5499632966455
20
10.19218761914188
10
262.55000000000007
20
0.20000000000000001
10
258.55000000002701
20
0.19998530717958762
10
258.5499632966725
20
10.192172926321465
0
LWPOLYLINE
5
383
100
AcDbEntity
8
0
100
AcDbPolyline
90
4
70
1
43
0.0
10
266.54996666136049
20
9.2761715173109014
10
266.55000000000007
20
0.20000000000000001
10
262.55000000002701
20
0.19998530717958762
10
262.54996666138749
20
9.2761568244904886
0
LINE
5
384
100
AcDbEntity
8
0
100
AcDbLine
10
257.55000000000007
20
37.199999999999996
30
0
11
277.05000000000001
21
37.199999999999996
31
0
0
LINE
5
385
100
AcDbEntity
8
0
100
AcDbLine
10
277.05000000000001
20
37.199999999999996
30
0
11
277.05000000000001
21
74.399999999999991
31
0
0
LINE
5
386
100
AcDbEntity
8
0
100
AcDbLine
10
277.05000000000001
20
74.399999999999991
30
0
11
257.55000000000007
21
74.399999999999991
31
0
0
LINE
5
387
100
AcDbEntity
8
0
100
AcDbLine
10
257.55000000000007
20
74.399999999999991
30
0
11
257.55000000000007
21
37.199999999999996
31
0
0
LWPOLYLINE
5
388
100
AcDbEntity
8
0
100
AcDbPolyline
90
4
70
1
43
0.0
10
262.5499632966455
20
47.392187619141879
10
262.55000000000007
20
37.399999999999999
10
258.55000000002701
20
37.399985307179584
10
258.5499632966725
20
47.392172926321464
0
LWPOLYLINE
5
389
100
AcDbEntity
8
0
100
AcDbPolyline
90
4
70
1
43
0.0
10
266.54996666136049
20
46.476171517310902
10
266.55000000000007
20
37.399999999999999
10
262.55000000002701
20
37.399985307179584
10
262.54996666138749
20
46.476156824490488
0
LINE
5
390
100
AcDbEntity
8
0
100
AcDbLine
10
257.55000000000007
20
74.399999999999991
30
0
11
277.05000000000001
21
74.399999999999991
31
0
0
LINE
5
391
100
AcDbEntity
8
0
100
AcDbLine
10
277.05000000000001
20
74.399999999999991
30
0
11
277.05000000000001
21
111.59999999999999
31
0
0
LINE
5
392
100
AcDbEntity
8
0
100
AcDbLine
10
277.05000000000001
20
111.59999999999999
30
0
11
257.55000000000007
21
111.59999999999999
31
0
0
LINE
5
393
100
AcDbEntity
8
0
100
AcDbLine
10
257.55000000000007
20
111.59999999999999
30
0
11
257.55000000000007
21
74.399999999999991
31
0
0
LWPOLYLINE
5
394
100
AcDbEntity
8
0
100
AcDbPolyline
90
4
70
1
43
0.0
10
262.5499632966455
20
84.592187619141882
10
262.55000000000007
20
74.599999999999994
10
258.55000000002701
20
74.599985307179594
10
258.5499632966725
20
84.592172926321467
0
LWPOLYLINE
5
395
100
AcDbEntity
8
0
100
AcDbPolyline
90
4
70
1
43
0.0
10
266.54996666136049
20
83.676171517310905
10
266.55000000000007
20
74.599999999999994
10
262.55000000002701
20
74.599985307179594
10
262.54996666138749
20
83.676156824490491
0
LINE
5
396
100
AcDbEntity
8
0
100
AcDbLine
10
257.55000000000007
20
111.59999999999999
30
0
11
277.05000000000001
21
111.59999999999999
31
0
0
LINE
5
397
100
AcDbEntity
8
0
100
AcDbLine
10
277.05000000000001
20
111.59999999999999
30
0
11
277.05000000000001
21
148.80000000000001
31
0
0
LINE
5
398
100
AcDbEntity
8
0
100
AcDbLine
10
277.05000000000001
20
148.80000000000001
30
0
11
257.55000000000007
21
148.80000000000001
31
0
0
LINE
5
399
100
AcDbEntity
8
0
100
AcDbLine
10
257.55000000000007
20
148.80000000000001
30
0
11
257.55000000000007
21
111.59999999999999
31
0
0
LWPOLYLINE
5
400
100
AcDbEntity
8
0
100
AcDbPolyline
90
4
70
1
43
0.0
10
262.5499632966455
20
121.79218761914187
10
262.55000000000007
20
111.8
10
258.55000000002701
20
111.79998530717958
10
258.5499632966725
20
121.79217292632146
0
LWPOLYLINE
5
401
100
AcDbEntity
8
0
100
AcDbPolyline
90
4
70
1
43
0.0
10
266.54996666136049
20
120.87617151731089
10
266.55000000000007
20
111.8
10
262.55000000002701
20
111.79998530717958
10
262.54996666138749
20
120.87615682449048
0
LINE
5
402
100
AcDbEntity
8
0
100
AcDbLine
10
257.55000000000007
20
148.80000000000001
30
0
11
277.05000000000001
21
148.80000000000001
31
0
0
LINE
5
403
100
AcDbEntity
8
0
100
AcDbLine
10
277.05000000000001
20
148.80000000000001
30
0
11
277.05000000000001
21
186
31
0
0
LINE
5
404
100
AcDbEntity
8
0
100
AcDbLine
10
277.05000000000001
20
186
30
0
11
257.55000000000007
21
186
31
0
0
LINE
5
405
100
AcDbEntity
8
0
100
AcDbLine
10
257.55000000000007
20
186
30
0
11
257.55000000000007
21
148.80000000000001
31
0
0
LWPOLYLINE
5
406
100
AcDbEntity
8
0
100
AcDbPolyline
90
4
70
1
43
0.0
10
262.5499632966455
20
158.99218761914187
10
262.55000000000007
20
149
10
258.55000000002701
20
148.9999853071796
10
258.5499632966725
20
158.99217292632147
0
LWPOLYLINE
5
407
100
AcDbEntity
8
0
100
AcDbPolyline
90
4
70
1
43
0.0
10
266.54996666136049
20
158.07617151731091
10
266.55000000000007
20
149
10
262.55000000002701
20
148.9999853071796
10
262.54996666138749
20
158.07615682449048
0
LINE
5
408
100
AcDbEntity
8
0
100
AcDbLine
10
257.55000000000007
20
186
30
0
11
277.05000000000001
21
186
31
0
0
LINE
5
409
100
AcDbEntity
8
0
100
AcDbLine
10
277.05000000000001
20
186
30
0
11
277.05000000000001
21
223.19999999999999
31
0
0
LINE
5
410
100
AcDbEntity
8
0
100
AcDbLine
10
277.05000000000001
20
223.19999999999999
30
0
11
257.55000000000007
21
223.19999999999999
31
0
0
LINE
5
411
100
AcDbEntity
8
0
100
AcDbLine
10
257.55000000000007
20
223.19999999999999
30
0
11
257.55000000000007
21
186
31
0
0
LWPOLYLINE
5
412
100
AcDbEntity
8
0
100
AcDbPolyline
90
4
70
1
43
0.0
10
262.5499632966455
20
196.19218761914192
10
262.55000000000007
20
186.20000000000002
10
258.55000000002701
20
186.19998530717962
10
258.5499632966725
20
196.19217292632146
0
LWPOLYLINE
5
413
100
AcDbEntity
8
0
100
AcDbPolyline
90
4
70
1
43
0.0
10
266.54996666136049
20
195.27617151731093
10
266.55000000000007
20
186.20000000000002
10
262.55000000002701
20
186.19998530717962
10
262.54996666138749
20
195.2761568244905
0
LINE
5
414
100
AcDbEntity
8
0
100
AcDbLine
10
0
20
232.19999999999999
30
0
11
19.5
21
232.19999999999999
31
0
0
LINE
5
415
100
AcDbEntity
8
0
100
AcDbLine
10
19.5
20
232.19999999999999
30
0
11
19.5
21
269.40000000000003
31
0
0
LINE
5
416
100
AcDbEntity
8
0
100
AcDbLine
10
19.5
20
269.40000000000003
30
0
11
0
21
269.40000000000003
31
0
0
LINE
5
417
100
AcDbEntity
8
0
100
AcDbLine
10
0
20
269.40000000000003
30
0
11
0
21
232.19999999999999
31
0
0
LWPOLYLINE
5
418
100
AcDbEntity
8
0
100
AcDbPolyline
90
4
70
1
43
0.0
10
4.9999632966454453
20
242.39218761914191
10
5
20
232.40000000000003
10
1.0000000000269849
20
232.39998530717963
10
0.99996329667242978
20
242.39217292632148
0
LWPOLYLINE
5
419
100
AcDbEntity
8
0
100
AcDbPolyline
90
4
70
1
43
0.0
10
8.9999666613604656
20
241.47617151731095
10
9
20
232.40000000000003
10
5.0000000000269846
20
232.39998530717963
10
4.9999666613874503
20
241.47615682449049
0
LINE
5
420
100
AcDbEntity
8
0
100
AcDbLine
10
19.5
20
232.19999999999999
30
0
11
39
21
232.19999999999999
31
0
0
LINE
5
421
100
AcDbEntity
8
0
100
AcDbLine
10
39
20
232.19999999999999
30
0
11
39
21
269.40000000000003
31
0
0
LINE
5
422
100
AcDbEntity
8
0
100
AcDbLine
10
39
20
269.40000000000003
30
0
11
19.5
21
269.40000000000003
31
0
0
LINE
5
423
100
AcDbEntity
8
0
100
AcDbLine
10
19.5
20
269.40000000000003
30
0
11
19.5
21
232.19999999999999
31
0
0
LWPOLYLINE
5
424
100
AcDbEntity
8
0
100
AcDbPolyline
90
4
70
1
43
0.0
10
24.499963296645447
20
242.39218761914191
10
24.5
20
232.40000000000003
10
20.500000000026986
20
232.39998530717963
10
20.49996329667243
20
242.39217292632148
0
LWPOLYLINE
5
425
100
AcDbEntity
8
0
100
AcDbPolyline
90
4
70
1
43
0.0
10
28.499966661360471
20
241.47617151731095
10
28.500000000000007
20
232.40000000000003
10
24.50000000002699
20
232.39998530717963
10
24.499966661387454
20
241.47615682449049
0
LINE
5
426
100
AcDbEntity
8
0
100
AcDbLine
10
39
20
232.19999999999999
30
0
11
58.500000000000007
21
232.19999999999999
31
0
0
LINE
5
427
100
AcDbEntity
8
0
100
AcDbLine
10
58.500000000000007
20
232.19999999999999
30
0
11
58.500000000000007
21
269.40000000000003
31
0
0
LINE
5
428
100
AcDbEntity
8
0
100
AcDbLine
10
58.500000000000007
20
269.40000000000003
30
0
11
39
21
269.40000000000003
31
0
0
LINE
5
429
100
AcDbEntity
8
0
100
AcDbLine
10
39
20
269.40000000000003
30
0
11
39
21
232.19999999999999
31
0
0
LWPOLYLINE
5
430
100
AcDbEntity
8
0
100
AcDbPolyline
90
4
70
1
43
0.0
10
43.999963296645454
20
242.39218761914191
10
44
20
232.40000000000003
10
40.000000000026994
20
232.39998530717963
10
39.999963296672433
20
242.39217292632148
0
LWPOLYLINE
5
431
100
AcDbEntity
8
0
100
AcDbPolyline
90
4
70
1
43
0.0
10
47.999966661360467
20
241.47617151731095
10
48.000000000000007
20
232.40000000000003
10
44.000000000026994
20
232.39998530717963
10
43.999966661387461
20
241.47615682449049
0
LINE
5
432
100
AcDbEntity
8
0
100
AcDbLine
10
58.500000000000007
20
232.19999999999999
30
0
11
78.000000000000014
21
232.19999999999999
31
0
0
LINE
5
433
100
AcDbEntity
8
0
100
AcDbLine
10
78.000000000000014
20
232.19999999999999
30
0
11
78.000000000000014
21
269.40000000000003
31
0
0
LINE
5
434
100
AcDbEntity
8
0
100
AcDbLine
10
78.000000000000014
20
269.40000000000003
30
0
11
58.500000000000007
21
269.40000000000003
31
0
0
LINE
5
435
100
AcDbEntity
8
0
100
AcDbLine
10
58.500000000000007
20
269.40000000000003
30
0
11
58.500000000000007
21
232.19999999999999
31
0
0
LWPOLYLINE
5
436
100
AcDbEntity
8
0
100
AcDbPolyline
90
4
70
1
43
0.0
10
63.499963296645454
20
242.39218761914191
10
63.500000000000007
20
232.40000000000003
10
59.500000000026994
20
232.39998530717963
10
59.499963296672433
20
242.39217292632148
0
LWPOLYLINE
5
437
100
AcDbEntity
8
0
100
AcDbPolyline
90
4
70
1
43
0.0
10
67.49996666136046
20
241.47617151731095
10
67.5
20
232.40000000000003
10
63.500000000026986
20
232.39998530717963
10
63.499966661387447
20
241.47615682449049
0
LINE
5
438
100
AcDbEntity
8
0
100
AcDbLine
10
78.000000000000014
20
232.19999999999999
30
0
11
97.5
21
232.19999999999999
31
0
0
LINE
5
439
100
AcDbEntity
8
0
100
AcDbLine
10
97.5
20
232.19999999999999
30
0
11
97.5
21
269.40000000000003
31
0
0
LINE
5
440
100
AcDbEntity
8
0
100
AcDbLine
10
97.5
20
269.40000000000003
30
0
11
78.000000000000014
21
269.40000000000003
31
0
0
LINE
5
441
100
AcDbEntity
8
0
100
AcDbLine
10
78.000000000000014
20
269.40000000000003
30
0
11
78.000000000000014
21
232.19999999999999
31
0
0
LWPOLYLINE
5
442
100
AcDbEntity
8
0
100
AcDbPolyline
90
4
70
1
43
0.0
10
82.999963296645447
20
242.39218761914191
10
83
20
232.40000000000003
10
79.000000000027001
20
232.39998530717963
10
78.999963296672433
20
242.39217292632148
0
LWPOLYLINE
5
443
100
AcDbEntity
8
0
100
AcDbPolyline
90
4
70
1
43
0.0
10
86.999966661360475
20
241.47617151731095
10
87.000000000000014
20
232.40000000000003
10
83.000000000026986
20
232.39998530717963
10
82.999966661387461
20
241.47615682449049
0
LINE
5
444
100
AcDbEntity
8
0
100
AcDbLine
10
97.5
20
232.19999999999999
30
0
11
117.00000000000001
21
232.19999999999999
31
0
0
LINE
5
445
100
AcDbEntity
8
0
100
AcDbLine
10
117.00000000000001
20
232.19999999999999
30
0
11
117.00000000000001
21
269.40000000000003
31
0
0
LINE
5
446
100
AcDbEntity
8
0
100
AcDbLine
10
117.00000000000001
20
269.40000000000003
30
0
11
97.5
21
269.40000000000003
31
0
0
LINE
5
447
100
AcDbEntity
8
0
100
AcDbLine
10
97.5
20
269.40000000000003
30
0
11
97.5
21
232.19999999999999
31
0
0
LWPOLYLINE
5
448
100
AcDbEntity
8
0
100
AcDbPolyline
90
4
70
1
43
0.0
10
102.49996329664543
20
242.39218761914191
10
102.5
20
232.40000000000003
10
98.500000000026972
20
232.39998530717963
10
98.499963296672433
20
242.39217292632148
0
LWPOLYLINE
5
449
100
AcDbEntity
8
0
100
AcDbPolyline
90
4
70
1
43
0.0
10
106.49996666136047
20
241.47617151731095
10
106.5
20
232.40000000000003
10
102.50000000002699
20
232.39998530717963
10
102.49996666138745
20
241.47615682449049
0
LINE
5
450
100
AcDbEntity
8
0
100
AcDbLine
10
117.00000000000001
20
232.19999999999999
30
0
11
133.5
21
232.19999999999999
31
0
0
LINE
5
451
100
AcDbEntity
8
0
100
AcDbLine
10
133.5
20
232.19999999999999
30
0
11
133.5
21
268.19999999999999
31
0
0
LINE
5
452
100
AcDbEntity
8
0
100
AcDbLine
10
133.5
20
268.19999999999999
30
0
11
117.00000000000001
21
268.19999999999999
31
0
0
LINE
5
453
100
AcDbEntity
8
0
100
AcDbLine
10
117.00000000000001
20
268.19999999999999
30
0
11
117.00000000000001
21
232.19999999999999
31
0
0
LWPOLYLINE
5
454
100
AcDbEntity
8
0
100
AcDbPolyline
90
4
70
1
43
0.0
10
121.99994325185087
20
247.84921874989578
10
122.00000000000001
20
232.40000000000003
10
118.00000000002699
20
232.39998530717963
10
117.99994325187784
20
247.84920405707538
0
LWPOLYLINE
5
455
100
AcDbEntity
8
0
100
AcDbPolyline
90
4
70
1
43
0.0
10
125.99996619503342
20
241.60312523835648
10
126.00000000000001
20
232.40000000000003
10
122.000000000027
20
232.39998530717963
10
121.99996619506041
20
241.60311054553608
0
LWPOLYLINE
5
456
100
AcDbEntity
8
0
100
AcDbPolyline
90
4
70
1
43
0.0
10
129.99996041260243
20
243.17734470360165
10
130
20
232.40000000000003
10
126.00000000002697
20
232.39998530717963
10
125.99996041262942
20
243.17733001078122
0
LINE
5
457
100
AcDbEntity
8
0
100
AcDbLine
10
133.5
20
232.19999999999999
30
0
11
156.30000000000001
21
232.19999999999999
31
0
0
LINE
5
458
100
AcDbEntity
8
0
100
AcDbLine
10
156.30000000000001
20
232.19999999999999
30
0
11
156.30000000000001
21
268.19999999999999
31
0
0
LINE
5
459
100
AcDbEntity
8
0
100
AcDbLine
10
156.30000000000001
20
268.19999999999999
30
0
11
133.5
21
268.19999999999999
31
0
0
LINE
5
460
100
AcDbEntity
8
0
100
AcDbLine
10
133.5
20
268.19999999999999
30
0
11
133.5
21
232.19999999999999
31
0
0
LWPOLYLINE
5
461
100
AcDbEntity
8
0
100
AcDbPolyline
90
4
70
1
43
0.0
10
138.4999498664906
20
246.04843726148937
10
138.5
20
232.40000000000003
10
134.50000000002697
20
232.39998530717963
10
134.49994986651757
20
246.04842256866897
0
LWPOLYLINE
5
462
100
AcDbEntity
8
0
100
AcDbPolyline
90
4
70
1
43
0.0
10
142.49994980909327
20
246.06406321516357
10
142.5
20
232.40000000000003
10
138.50000000002697
20
232.39998530717963
10
138.49994980912027
20
246.06404852234317
0
LINE
5
463
100
AcDbEntity
8
0
100
AcDbLine
10
156.30000000000001
20
232.19999999999999
30
0
11
178.79999999999998
21
232.19999999999999
31
0
0
LINE
5
464
100
AcDbEntity
8
0
100
AcDbLine
10
178.79999999999998
20
232.19999999999999
30
0
11
178.79999999999998
21
268.19999999999999
31
0
0
LINE
5
465
100
AcDbEntity
8
0
100
AcDbLine
10
178.79999999999998
20
268.19999999999999
30
0
11
156.30000000000001
21
268.19999999999999
31
0
0
LINE
5
466
100
AcDbEntity
8
0
100
AcDbLine
10
156.30000000000001
20
268.19999999999999
30
0
11
156.30000000000001
21
232.19999999999999
31
0
0
LWPOLYLINE
5
467
100
AcDbEntity
8
0
100
AcDbPolyline
90
4
70
1
43
0.0
10
161.2999706215312
20
240.39804747099251
10
161.29999999999998
20
232.40000000000003
10
157.30000000002696
20
232.39998530717963
10
157.2999706215582
20
240.39803277817211
0
LWPOLYLINE
5
468
100
AcDbEntity
8
0
100
AcDbPolyline
90
4
70
1
43
0.0
10
165.29998168419385
20
237.38632818457103
10
165.29999999999998
20
232.40000000000003
10
161.30000000002696
20
232.39998530717963
10
161.29998168422082
20
237.38631349175063
0
LWPOLYLINE
5
469
100
AcDbEntity
8
0
100
AcDbPolyline
90
4
70
1
43
0.0
10
169.29996582914728
20
241.70273473256515
10
169.30000000000001
20
232.40000000000003
10
165.30000000002698
20
232.39998530717963
10
165.29996582917431
20
241.70272003974472
0
LINE
5
470
100
AcDbEntity
8
0
100
AcDbLine
10
178.79999999999998
20
232.19999999999999
30
0
11
207.00000000000003
21
232.19999999999999
31
0
0
LINE
5
471
100
AcDbEntity
8
0
100
AcDbLine
10
207.00000000000003
20
232.19999999999999
30
0
11
207.00000000000003
21
265.19999999999999
31
0
0
LINE
5
472
100
AcDbEntity
8
0
100
AcDbLine
10
207.00000000000003
20
265.19999999999999
30
0
11
178.79999999999998
21
265.19999999999999
31
0
0
LINE
5
473
100
AcDbEntity
8
0
100
AcDbLine
10
178.79999999999998
20
265.19999999999999
30
0
11
178.79999999999998
21
232.19999999999999
31
0
0
LWPOLYLINE
5
474
100
AcDbEntity
8
0
100
AcDbPolyline
90
4
70
1
43
0.0
10
183.7999608789317
20
243.0503903865096
10
183.79999999999998
20
232.40000000000003
10
179.80000000002696
20
232.39998530717963
10
179.79996087895867
20
243.05037569368918
0
LINE
5
475
100
AcDbEntity
8
0
100
AcDbLine
10
207.00000000000003
20
232.19999999999999
30
0
11
234.00000000000003
21
232.19999999999999
31
0
0
LINE
5
476
100
AcDbEntity
8
0
100
AcDbLine
10
234.00000000000003
20
232.19999999999999
30
0
11
234.00000000000003
21
263.69999999999999
31
0
0
LINE
5
477
100
AcDbEntity
8
0
100
AcDbLine
10
234.00000000000003
20
263.69999999999999
30
0
11
207.00000000000003
21
263.69999999999999
31
0
0
LINE
5
478
100
AcDbEntity
8
0
100
AcDbLine
10
207.00000000000003
20
263.69999999999999
30
0
11
207.00000000000003
21
232.19999999999999
31
0
0
LWPOLYLINE
5
479
100
AcDbEntity
8
0
100
AcDbPolyline
90
4
70
1
43
0.0
10
211.99994793662572
20
246.57382717123005
10
212.00000000000003
20
232.40000000000003
10
208.000000000027
20
232.39998530717963
10
207.99994793665269
20
246.57381247840965
0
LWPOLYLINE
5
480
100
AcDbEntity
8
0
100
AcDbPolyline
90
4
70
1
43
0.0
10
215.99994616458599
20
247.05625047673831
10
216
20
232.40000000000003
10
212.000000000027
20
232.39998530717963
10
211.99994616461296
20
247.05623578391791
0
LINE
5
481
100
AcDbEntity
8
0
100
AcDbLine
10
234.00000000000003
20
232.19999999999999
30
0
11
255
21
232.19999999999999
31
0
0
LINE
5
482
100
AcDbEntity
8
0
100
AcDbLine
10
255
20
232.19999999999999
30
0
11
255
21
262.19999999999999
31
0
0
LINE
5
483
100
AcDbEntity
8
0
100
AcDbLine
10
255
20
262.19999999999999
30
0
11
234.00000000000003
21
262.19999999999999
31
0
0
LINE
5
484
100
AcDbEntity
8
0
100
AcDbLine
10
234.00000000000003
20
262.19999999999999
30
0
11
234.00000000000003
21
232.19999999999999
31
0
0
LWPOLYLINE
5
485
100
AcDbEntity
8
0
100
AcDbPolyline
90
4
70
1
43
0.0
10
238.9999658291473
20
241.70273473256515
10
239.00000000000003
20
232.40000000000003
10
235.000000000027
20
232.39998530717963
10
234.99996582917433
20
241.70272003974472
0
LWPOLYLINE
5
486
100
AcDbEntity
8
0
100
AcDbPolyline
90
4
70
1
43
0.0
10
242.99997219269127
20
239.97031202311177
10
243
20
232.40000000000003
10
239.000000000027
20
232.39998530717963
10
238.99997219271825
20
239.97029733029137
0
LINE
5
487
100
AcDbEntity
8
0
100
AcDbLine
10
139.95000000000002
20
76.799999999999997
30
0
11
153.75000000000003
21
76.799999999999997
31
0
0
LINE
5
488
100
AcDbEntity
8
0
100
AcDbLine
10
153.75000000000003
20
76.799999999999997
30
0
11
153.75000000000003
21
104.39999999999999
31
0
0
LINE
5
489
100
AcDbEntity
8
0
100
AcDbLine
10
153.75000000000003
20
104.39999999999999
30
0
11
139.95000000000002
21
104.39999999999999
31
0
0
LINE
5
490
100
AcDbEntity
8
0
100
AcDbLine
10
139.95000000000002
20
104.39999999999999
30
0
11
139.95000000000002
21
76.799999999999997
31
0
0
LWPOLYLINE
5
491
100
AcDbEntity
8
0
100
AcDbPolyline
90
4
70
1
43
0.0
10
144.94996248595629
20
87.21289110176825
10
144.95000000000002
20
77
10
140.95000000002699
20
76.999985307179585
10
140.94996248598329
20
87.212876408947849
0
LWPOLYLINE
5
492
100
AcDbEntity
8
0
100
AcDbPolyline
90
4
70
1
43
0.0
10
148.94995677527197
20
88.767578124920604
10
148.95000000000002
20
77
10
144.95000000002699
20
76.999985307179585
10
144.94995677529897
20
88.767563432100189
0
LINE
5
493
100
AcDbEntity
8
0
100
AcDbLine
10
255
20
232.19999999999999
30
0
11
268.80000000000001
21
232.19999999999999
31
0
0
LINE
5
494
100
AcDbEntity
8
0
100
AcDbLine
10
268.80000000000001
20
232.19999999999999
30
0
11
268.80000000000001
21
259.80000000000001
31
0
0
LINE
5
495
100
AcDbEntity
8
0
100
AcDbLine
10
268.80000000000001
20
259.80000000000001
30
0
11
255
21
259.80000000000001
31
0
0
LINE
5
496
100
AcDbEntity
8
0
100
AcDbLine
10
255
20
259.80000000000001
30
0
11
255
21
232.19999999999999
31
0
0
LWPOLYLINE
5
497
100
AcDbEntity
8
0
100
AcDbPolyline
90
4
70
1
43
0.0
10
259.99995874818489
20
243.63046874992423
10
260
20
232.40000000000003
10
256.000000000027
20
232.39998530717963
10
255.99995874821187
20
243.63045405710383
0
LWPOLYLINE
5
498
100
AcDbEntity
8
0
100
AcDbPolyline
90
4
70
1
43
0.0
10
263.99995677527204
20
244.16757812492062
10
264
20
232.40000000000003
10
260.000000000027
20
232.39998530717963
10
259.99995677529898
20
244.16756343210022
0
LINE
5
499
100
AcDbEntity
8
0
100
AcDbLine
10
277.05000000000001
20
0
30
0
11
295.35000000000008
21
0
31
0
0
LINE
5
500
100
AcDbEntity
8
0
100
AcDbLine
10
295.35000000000008
20
0
30
0
11
295.35000000000008
21
27.599999999999998
31
0
0
LINE
5
501
100
AcDbEntity
8
0
100
AcDbLine
10
295.35000000000008
20
27.599999999999998
30
0
11
277.05000000000001
21
27.599999999999998
31
0
0
LINE
5
502
100
AcDbEntity
8
0
100
AcDbLine
10
277.05000000000001
20
27.599999999999998
30
0
11
277.05000000000001
21
0
31
0
0
LWPOLYLINE
5
503
100
AcDbEntity
8
0
100
AcDbPolyline
90
4
70
1
43
0.0
10
282.04992610544423
20
20.317187499864282
10
282.05000000000001
20
0.20000000000000001
10
278.05000000002701
20
0.19998530717958651
10
278.04992610547123
20
20.317172807043868
0
LINE
5
504
100
AcDbEntity
8
0
100
AcDbLine
10
277.05000000000001
20
27.599999999999998
30
0
11
295.35000000000008
21
27.599999999999998
31
0
0
LINE
5
505
100
AcDbEntity
8
0
100
AcDbLine
10
295.35000000000008
20
27.599999999999998
30
0
11
295.35000000000008
21
55.200000000000003
31
0
0
LINE
5
506
100
AcDbEntity
8
0
100
AcDbLine
10
295.35000000000008
20
55.200000000000003
30
0
11
277.05000000000001
21
55.200000000000003
31
0
0
LINE
5
507
100
AcDbEntity
8
0
100
AcDbLine
10
277.05000000000001
20
55.200000000000003
30
0
11
277.05000000000001
21
27.599999999999998
31
0
0
LWPOLYLINE
5
508
100
AcDbEntity
8
0
100
AcDbPolyline
90
4
70
1
43
0.0
10
282.04992610544423
20
47.917187499864283
10
282.05000000000001
20
27.799999999999997
10
278.05000000002701
20
27.799985307179583
10
278.04992610547123
20
47.917172807043862
0
LINE
5
509
100
AcDbEntity
8
0
100
AcDbLine
10
277.05000000000001
20
55.200000000000003
30
0
11
295.05000000000007
21
55.200000000000003
31
0
0
LINE
5
510
100
AcDbEntity
8
0
100
AcDbLine
10
295.05000000000007
20
55.200000000000003
30
0
11
295.05000000000007
21
82.200000000000003
31
0
0
LINE
5
511
100
AcDbEntity
8
0
100
AcDbLine
10
295.05000000000007
20
82.200000000000003
30
0
11
277.05000000000001
21
82.200000000000003
31
0
0
LINE
5
512
100
AcDbEntity
8
0
100
AcDbLine
10
277.05000000000001
20
82.200000000000003
30
0
11
277.05000000000001
21
55.200000000000003
31
0
0
LWPOLYLINE
5
513
100
AcDbEntity
8
0
100
AcDbPolyline
90
4
70
1
43
0.0
10
282.04994673135178
20
69.901953124902164
10
282.05000000000001
20
55.399999999999999
10
278.05000000002701
20
55.399985307179591
10
278.04994673137878
20
69.901938432081749
0
LWPOLYLINE
5
514
100
AcDbEntity
8
0
100
AcDbPolyline
90
4
70
1
43
0.0
10
286.04997442387253
20
62.362891220999472
10
286.05000000000007
20
55.399999999999999
10
282.05000000002707
20
55.399985307179591
10
282.04997442389947
20
62.362876528179065
0
LWPOLYLINE
5
515
100
AcDbEntity
8
0
100
AcDbPolyline
90
4
70
1
43
0.0
10
290.04997483280658
20
62.251562261535199
10
290.05000000000007
20
55.399999999999999
10
286.05000000002701
20
55.399985307179591
10
286.04997483283358
20
62.251547568714784
0
LINE
5
516
100
AcDbEntity
8
0
100
AcDbLine
10
294.05000000000007
20
55.399999999999999
30
0
11
294.05000000000007
21
55.399999999999999
31
0
0
LINE
5
517
100
AcDbEntity
8
0
100
AcDbLine
10
294.05000000000007
20
55.399999999999999
30
0
11
290.05000000002701
21
55.399985307179591
31
0
0
LINE
5
518
100
AcDbEntity
8
0
100
AcDbLine
10
290.05000000002701
20
55.399985307179591
30
0
11
290.05000000002701
21
55.399985307179591
31
0
0
LINE
5
519
100
AcDbEntity
8
0
100
AcDbLine
10
290.05000000002701
20
55.399985307179591
30
0
11
294.05000000000007
21
55.399999999999999
31
0
0
LINE
5
520
100
AcDbEntity
8
0
100
AcDbLine
10
277.05000000000001
20
82.200000000000003
30
0
11
292.05000000000001
21
82.200000000000003
31
0
0
LINE
5
521
100
AcDbEntity
8
0
100
AcDbLine
10
292.05000000000001
20
82.200000000000003
30
0
11
292.05000000000001
21
109.20000000000003
31
0
0
LINE
5
522
100
AcDbEntity
8
0
100
AcDbLine
10
292.05000000000001
20
109.20000000000003
30
0
11
277.05000000000001
21
109.20000000000003
31
0
0
LINE
5
523
100
AcDbEntity
8
0
100
AcDbLine
10
277.05000000000001
20
109.20000000000003
30
0
11
277.05000000000001
21
82.200000000000003
31
0
0
LWPOLYLINE
5
524
100
AcDbEntity
8
0
100
AcDbPolyline
90
4
70
1
43
0.0
10
282.04996951670046
20
90.698828601781173
10
282.05000000000001
20
82.400000000000006
10
278.05000000002701
20
82.399985307179577
10
278.0499695167274
20
90.698813908960773
0
LWPOLYLINE
5
525
100
AcDbEntity
8
0
100
AcDbPolyline
90
4
70
1
43
0.0
10
286.04996052022034
20
93.148046636508909
10
286.05000000000007
20
82.400000000000006
10
282.05000000002707
20
82.399985307179577
10
282.04996052024728
20
93.148031943688494
0
LINE
5
526
100
AcDbEntity
8
0
100
AcDbLine
10
277.05000000000001
20
109.20000000000003
30
0
11
286.35000000000002
21
109.20000000000003
31
0
0
LINE
5
527
100
AcDbEntity
8
0
100
AcDbLine
10
286.35000000000002
20
109.20000000000003
30
0
11
286.35000000000002
21
133.80000000000004
31
0
0
LINE
5
528
100
AcDbEntity
8
0
100
AcDbLine
10
286.35000000000002
20
133.80000000000004
30
0
11
277.05000000000001
21
133.80000000000004
31
0
0
LINE
5
529
100
AcDbEntity
8
0
100
AcDbLine
10
277.05000000000001
20
133.80000000000004
30
0
11
277.05000000000001
21
109.20000000000003
31
0
0
LWPOLYLINE
5
530
100
AcDbEntity
8
0
100
AcDbPolyline
90
4
70
1
43
0.0
10
282.04993604175104
20
126.81210937488254
10
282.05000000000001
20
109.40000000000001
10
278.05000000002701
20
109.39998530717959
10
278.04993604177798
20
126.81209468206212
0
LINE
5
531
100
AcDbEntity
8
0
100
AcDbLine
10
277.05000000000001
20
133.80000000000004
30
0
11
295.05000000000007
21
133.80000000000004
31
0
0
LINE
5
532
100
AcDbEntity
8
0
100
AcDbLine
10
295.05000000000007
20
133.80000000000004
30
0
11
295.05000000000007
21
157.80000000000004
31
0
0
LINE
5
533
100
AcDbEntity
8
0
100
AcDbLine
10
295.05000000000007
20
157.80000000000004
30
0
11
277.05000000000001
21
157.80000000000004
31
0
0
LINE
5
534
100
AcDbEntity
8
0
100
AcDbLine
10
277.05000000000001
20
157.80000000000004
30
0
11
277.05000000000001
21
133.80000000000004
31
0
0
LWPOLYLINE
5
535
100
AcDbEntity
8
0
100
AcDbPolyline
90
4
70
1
43
0.0
10
282.04996495389275
20
143.54101562493568
10
282.05000000000001
20
134.00000000000003
10
278.05000000002701
20
133.99998530717963
10
278.0499649539197
20
143.54100093211525
0
LWPOLYLINE
5
536
100
AcDbEntity
8
0
100
AcDbPolyline
90
4
70
1
43
0.0
10
286.04996948082936
20
142.30859422678117
10
286.05000000000007
20
134.00000000000003
10
282.05000000002707
20
133.99998530717963
10
282.04996948085636
20
142.30857953396074
0
LINE
5
537
100
AcDbEntity
8
0
100
AcDbLine
10
0
20
269.40000000000003
30
0
11
23.100000000000001
21
269.40000000000003
31
0
0
LINE
5
538
100
AcDbEntity
8
0
100
AcDbLine
10
23.100000000000001
20
269.40000000000003
30
0
11
23.100000000000001
21
292.50000000000006
31
0
0
LINE
5
539
100
AcDbEntity
8
0
100
AcDbLine
10
23.100000000000001
20
292.50000000000006
30
0
11
0
21
292.50000000000006
31
0
0
LINE
5
540
100
AcDbEntity
8
0
100
AcDbLine
10
0
20
292.50000000000006
30
0
11
0
21
269.40000000000003
31
0
0
LWPOLYLINE
5
541
100
AcDbEntity
8
0
100
AcDbPolyline
90
4
70
1
43
0.0
10
4.9999589203637376
20
280.78359446518027
10
5
20
269.60000000000002
10
1.0000000000269849
20
269.59998530717962
10
0.99995892039072276
20
280.78357977235987
0
LWPOLYLINE
5
542
100
AcDbEntity
8
0
100
AcDbPolyline
90
4
70
1
43
0.0
10
8.9999631244643936
20
279.63906249993227
10
9
20
269.60000000000002
10
5.0000000000269846
20
269.59998530717962
10
4.9999631244913791
20
279.63904780711187
0
LWPOLYLINE
5
543
100
AcDbEntity
8
0
100
AcDbPolyline
90
4
70
1
43
0.0
10
12.999965829147309
20
278.90273473256514
10
13.000000000000004
20
269.60000000000002
10
9.0000000000269882
20
269.59998530717962
10
8.999965829174295
20
278.90272003974468
0
LINE
5
544
100
AcDbEntity
8
0
100
AcDbLine
10
277.05000000000001
20
157.80000000000004
30
0
11
290.85000000000002
21
157.80000000000004
31
0
0
LINE
5
545
100
AcDbEntity
8
0
100
AcDbLine
10
290.85000000000002
20
157.80000000000004
30
0
11
290.85000000000002
21
179.10000000000002
31
0
0
LINE
5
546
100
AcDbEntity
8
0
100
AcDbLine
10
290.85000000000002
20
179.10000000000002
30
0
11
277.05000000000001
21
179.10000000000002
31
0
0
LINE
5
547
100
AcDbEntity
8
0
100
AcDbLine
10
277.05000000000001
20
179.10000000000002
30
0
11
277.05000000000001
21
157.80000000000004
31
0
0
LWPOLYLINE
5
548
100
AcDbEntity
8
0
100
AcDbPolyline
90
4
70
1
43
0.0
10
282.04996707746267
20
166.96289110177673
10
282.05000000000001
20
158.00000000000003
10
278.05000000002701
20
157.9999853071796
10
278.04996707748967
20
166.9628764089563
0
LWPOLYLINE
5
549
100
AcDbEntity
8
0
100
AcDbPolyline
90
4
70
1
43
0.0
10
286.04995346078192
20
170.66992092124025
10
286.05000000000007
20
158.00000000000003
10
282.05000000002707
20
157.9999853071796
10
282.04995346080887
20
170.66990622841982
0
LINE
5
550
100
AcDbEntity
8
0
100
AcDbLine
10
277.05000000000001
20
179.10000000000002
30
0
11
292.05000000000001
21
179.10000000000002
31
0
0
LINE
5
551
100
AcDbEntity
8
0
100
AcDbLine
10
292.05000000000001
20
179.10000000000002
30
0
11
292.05000000000001
21
198.00000000000006
31
0
0
LINE
5
552
100
AcDbEntity
8
0
100
AcDbLine
10
292.05000000000001
20
198.00000000000006
30
0
11
277.05000000000001
21
198.00000000000006
31
0
0
LINE
5
553
100
AcDbEntity
8
0
100
AcDbLine
10
277.05000000000001
20
198.00000000000006
30
0
11
277.05000000000001
21
179.10000000000002
31
0
0
LWPOLYLINE
5
554
100
AcDbEntity
8
0
100
AcDbPolyline
90
4
70
1
43
0.0
10
282.04996417907472
20
189.05195348256214
10
282.05000000000001
20
179.30000000000007
10
278.05000000002701
20
179.29998530717967
10
278.04996417910172
20
189.05193878974174
0
LWPOLYLINE
5
555
100
AcDbEntity
8
0
100
AcDbPolyline
90
4
70
1
43
0.0
10
286.04996542021763
20
188.71406249993655
10
286.05000000000007
20
179.30000000000007
10
282.05000000002707
20
179.29998530717967
10
282.04996542024463
20
188.71404780711615
0
LINE
5
556
100
AcDbEntity
8
0
100
AcDbLine
10
277.05000000000001
20
198.00000000000006
30
0
11
292.05000000000001
21
198.00000000000006
31
0
0
LINE
5
557
100
AcDbEntity
8
0
100
AcDbLine
10
292.05000000000001
20
198.00000000000006
30
0
11
292.05000000000001
21
216.90000000000003
31
0
0
LINE
5
558
100
AcDbEntity
8
0
100
AcDbLine
10
292.05000000000001
20
216.90000000000003
30
0
11
277.05000000000001
21
216.90000000000003
31
0
0
LINE
5
559
100
AcDbEntity
8
0
100
AcDbLine
10
277.05000000000001
20
216.90000000000003
30
0
11
277.05000000000001
21
198.00000000000006
31
0
0
LWPOLYLINE
5
560
100
AcDbEntity
8
0
100
AcDbPolyline
90
4
70
1
43
0.0
10
282.04996417907472
20
207.95195348256212
10
282.05000000000001
20
198.20000000000005
10
278.05000000002701
20
198.19998530717965
10
278.04996417910172
20
207.95193878974172
0
LWPOLYLINE
5
561
100
AcDbEntity
8
0
100
AcDbPolyline
90
4
70
1
43
0.0
10
286.04996542021763
20
207.61406249993652
10
286.05000000000007
20
198.20000000000005
10
282.05000000002707
20
198.19998530717965
10
282.04996542024463
20
207.61404780711612
0
LINE
5
562
100
AcDbEntity
8
0
100
AcDbLine
10
277.05000000000001
20
216.90000000000003
30
0
11
292.05000000000001
21
216.90000000000003
31
0
0
LINE
5
563
100
AcDbEntity
8
0
100
AcDbLine
10
292.05000000000001
20
216.90000000000003
30
0
11
292.05000000000001
21
235.80000000000007
31
0
0
LINE
5
564
100
AcDbEntity
8
0
100
AcDbLine
10
292.05000000000001
20
235.80000000000007
30
0
11
277.05000000000001
21
235.80000000000007
31
0
0
LINE
5
565
100
AcDbEntity
8
0
100
AcDbLine
10
277.05000000000001
20
235.80000000000007
30
0
11
277.05000000000001
21
216.90000000000003
31
0
0
LWPOLYLINE
5
566
100
AcDbEntity
8
0
100
AcDbPolyline
90
4
70
1
43
0.0
10
282.04996417907472
20
226.85195348256212
10
282.05000000000001
20
217.10000000000005
10
278.05000000002701
20
217.09998530717965
10
278.04996417910172
20
226.85193878974172
0
LWPOLYLINE
5
567
100
AcDbEntity
8
0
100
AcDbPolyline
90
4
70
1
43
0.0
10
286.04996542021763
20
226.51406249993653
10
286.05000000000007
20
217.10000000000005
10
282.05000000002707
20
217.09998530717965
10
282.04996542024463
20
226.51404780711613
0
LINE
5
568
100
AcDbEntity
8
0
100
AcDbLine
10
277.05000000000001
20
235.80000000000007
30
0
11
292.05000000000001
21
235.80000000000007
31
0
0
LINE
5
569
100
AcDbEntity
8
0
100
AcDbLine
10
292.05000000000001
20
235.80000000000007
30
0
11
292.05000000000001
21
254.7000000000001
31
0
0
LINE
5
570
100
AcDbEntity
8
0
100
AcDbLine
10
292.05000000000001
20
254.7000000000001
30
0
11
277.05000000000001
21
254.7000000000001
31
0
0
LINE
5
571
100
AcDbEntity
8
0
100
AcDbLine
10
277.05000000000001
20
254.7000000000001
30
0
11
277.05000000000001
21
235.80000000000007
31
0
0
LWPOLYLINE
5
572
100
AcDbEntity
8
0
100
AcDbPolyline
90
4
70
1
43
0.0
10
282.04996417907472
20
245.75195348256213
10
282.05000000000001
20
236.00000000000006
10
278.05000000002701
20
235.99998530717966
10
278.04996417910172
20
245.75193878974173
0
LWPOLYLINE
5
573
100
AcDbEntity
8
0
100
AcDbPolyline
90
4
70
1
43
0.0
10
286.04996542021763
20
245.41406249993653
10
286.05000000000007
20
236.00000000000006
10
282.05000000002707
20
235.99998530717966
10
282.04996542024463
20
245.41404780711613
0
LINE
5
574
100
AcDbEntity
8
0
100
AcDbLine
10
139.95000000000002
20
104.39999999999999
30
0
11
154.95000000000002
21
104.39999999999999
31
0
0
LINE
5
575
100
AcDbEntity
8
0
100
AcDbLine
10
154.95000000000002
20
104.39999999999999
30
0
11
154.95000000000002
21
123.3
31
0
0
LINE
5
576
100
AcDbEntity
8
0
100
AcDbLine
10
154.95000000000002
20
123.3
30
0
11
139.95000000000002
21
123.3
31
0
0
LINE
5
577
100
AcDbEntity
8
0
100
AcDbLine
10
139.95000000000002
20
123.3
30
0
11
139.95000000000002
21
104.39999999999999
31
0
0
LWPOLYLINE
5
578
100
AcDbEntity
8
0
100
AcDbPolyline
90
4
70
1
43
0.0
10
144.9499641790747
20
114.35195348256208
10
144.95000000000002
20
104.60000000000001
10
140.95000000002699
20
104.59998530717959
10
140.9499641791017
20
114.35193878974168
0
LWPOLYLINE
5
579
100
AcDbEntity
8
0
100
AcDbPolyline
90
4
70
1
43
0.0
10
148.94996542021761
20
114.0140624999365
10
148.95000000000002
20
104.60000000000001
10
144.95000000002699
20
104.59998530717959
10
144.94996542024458
20
114.01404780711609
0
LINE
5
580
100
AcDbEntity
8
0
100
AcDbLine
10
23.100000000000001
20
269.40000000000003
30
0
11
38.100000000000001
21
269.40000000000003
31
0
0
LINE
5
581
100
AcDbEntity
8
0
100
AcDbLine
10
38.100000000000001
20
269.40000000000003
30
0
11
38.100000000000001
21
288.30000000000001
31
0
0
LINE
5
582
100
AcDbEntity
8
0
100
AcDbLine
10
38.100000000000001
20
288.30000000000001
30
0
11
23.100000000000001
21
288.30000000000001
31
0
0
LINE
5
583
100
AcDbEntity
8
0
100
AcDbLine
10
23.100000000000001
20
288.30000000000001
30
0
11
23.100000000000001
21
269.40000000000003
31
0
0
LWPOLYLINE
5
584
100
AcDbEntity
8
0
100
AcDbPolyline
90
4
70
1
43
0.0
10
28.099964179074703
20
279.35195348256207
10
28.100000000000001
20
269.60000000000002
10
24.100000000026984
20
269.59998530717962
10
24.099964179101686
20
279.35193878974167
0
LWPOLYLINE
5
585
100
AcDbEntity
8
0
100
AcDbPolyline
90
4
70
1
43
0.0
10
32.099965420217586
20
279.01406249993647
10
32.100000000000001
20
269.60000000000002
10
28.100000000026984
20
269.59998530717962
10
28.099965420244569
20
279.01404780711607
0
LINE
5
586
100
AcDbEntity
8
0
100
AcDbLine
10
38.100000000000001
20
269.40000000000003
30
0
11
53.100000000000009
21
269.40000000000003
31
0
0
LINE
5
587
100
AcDbEntity
8
0
100
AcDbLine
10
53.100000000000009
20
269.40000000000003
30
0
11
53.100000000000009
21
288.30000000000001
31
0
0
LINE
5
588
100
AcDbEntity
8
0
100
AcDbLine
10
53.100000000000009
20
288.30000000000001
30
0
11
38.100000000000001
21
288.30000000000001
31
0
0
LINE
5
589
100
AcDbEntity
8
0
100
AcDbLine
10
38.100000000000001
20
288.30000000000001
30
0
11
38.100000000000001
21
269.40000000000003
31
0
0
LWPOLYLINE
5
590
100
AcDbEntity
8
0
100
AcDbPolyline
90
4
70
1
43
0.0
10
43.099964179074703
20
279.35195348256207
10
43.100000000000009
20
269.60000000000002
10
39.100000000026988
20
269.59998530717962
10
39.09996417910169
20
279.35193878974167
0
LWPOLYLINE
5
591
100
AcDbEntity
8
0
100
AcDbPolyline
90
4
70
1
43
0.0
10
47.099965420217586
20
279.01406249993647
10
47.100000000000001
20
269.60000000000002
10
43.100000000026988
20
269.59998530717962
10
43.099965420244565
20
279.01404780711607
0
LINE
5
592
100
AcDbEntity
8
0
100
AcDbLine
10
53.100000000000009
20
269.40000000000003
30
0
11
68.100000000000009
21
269.40000000000003
31
0
0
LINE
5
593
100
AcDbEntity
8
0
100
AcDbLine
10
68.100000000000009
20
269.40000000000003
30
0
11
68.100000000000009
21
288.30000000000001
31
0
0
LINE
5
594
100
AcDbEntity
8
0
100
AcDbLine
10
68.100000000000009
20
288.30000000000001
30
0
11
53.100000000000009
21
288.30000000000001
31
0
0
LINE
5
595
100
AcDbEntity
8
0
100
AcDbLine
10
53.100000000000009
20
288.30000000000001
30
0
11
53.100000000000009
21
269.40000000000003
31
0
0
LWPOLYLINE
5
596
100
AcDbEntity
8
0
100
AcDbPolyline
90
4
70
1
43
0.0
10
58.099964179074703
20
279.35195348256207
10
58.100000000000009
20
269.60000000000002
10
54.100000000026995
20
269.59998530717962
10
54.09996417910169
20
279.35193878974167
0
LWPOLYLINE
5
597
100
AcDbEntity
8
0
100
AcDbPolyline
90
4
70
1
43
0.0
10
62.099965420217586
20
279.01406249993647
10
62.100000000000001
20
269.60000000000002
10
58.100000000026988
20
269.59998530717962
10
58.099965420244565
20
279.01404780711607
0
LINE
5
598
100
AcDbEntity
8
0
100
AcDbLine
10
68.100000000000009
20
269.40000000000003
30
0
11
83.100000000000009
21
269.40000000000003
31
0
0
LINE
5
599
100
AcDbEntity
8
0
100
AcDbLine
10
83.100000000000009
20
269.40000000000003
30
0
11
83.100000000000009
21
288.30000000000001
31
0
0
LINE
5
600
100
AcDbEntity
8
0
100
AcDbLine
10
83.100000000000009
20
288.30000000000001
30
0
11
68.100000000000009
21
288.30000000000001
31
0
0
LINE
5
601
100
AcDbEntity
8
0
100
AcDbLine
10
68.100000000000009
20
288.30000000000001
30
0
11
68.100000000000009
21
269.40000000000003
31
0
0
LWPOLYLINE
5
602
100
AcDbEntity
8
0
100
AcDbPolyline
90
4
70
1
43
0.0
10
73.099964179074689
20
279.35195348256207
10
73.099999999999994
20
269.60000000000002
10
69.100000000026981
20
269.59998530717962
10
69.099964179101676
20
279.35193878974167
0
LWPOLYLINE
5
603
100
AcDbEntity
8
0
100
AcDbPolyline
90
4
70
1
43
0.0
10
77.099965420217586
20
279.01406249993647
10
77.099999999999994
20
269.60000000000002
10
73.100000000026995
20
269.59998530717962
10
73.099965420244558
20
279.01404780711607
0
LINE
5
604
100
AcDbEntity
8
0
100
AcDbLine
10
83.100000000000009
20
269.40000000000003
30
0
11
98.100000000000009
21
269.40000000000003
31
0
0
LINE
5
605
100
AcDbEntity
8
0
100
AcDbLine
10
98.100000000000009
20
269.40000000000003
30
0
11
98.100000000000009
21
288.30000000000001
31
0
0
LINE
5
606
100
AcDbEntity
8
0
100
AcDbLine
10
98.100000000000009
20
288.30000000000001
30
0
11
83.100000000000009
21
288.30000000000001
31
0
0
LINE
5
607
100
AcDbEntity
8
0
100
AcDbLine
10
83.100000000000009
20
288.30000000000001
30
0
11
83.100000000000009
21
269.40000000000003
31
0
0
LWPOLYLINE
5
608
100
AcDbEntity
8
0
100
AcDbPolyline
90
4
70
1
43
0.0
10
88.099964179074703
20
279.35195348256207
10
88.100000000000009
20
269.60000000000002
10
84.100000000026981
20
269.59998530717962
10
84.099964179101676
20
279.35193878974167
0
LWPOLYLINE
5
609
100
AcDbEntity
8
0
100
AcDbPolyline
90
4
70
1
43
0.0
10
92.099965420217586
20
279.01406249993647
10
92.100000000000009
20
269.60000000000002
10
88.100000000026995
20
269.59998530717962
10
88.099965420244573
20
279.01404780711607
0
LINE
5
610
100
AcDbEntity
8
0
100
AcDbLine
10
98.100000000000009
20
269.40000000000003
30
0
11
113.10000000000001
21
269.40000000000003
31
0
0
LINE
5
611
100
AcDbEntity
8
0
100
AcDbLine
10
113.10000000000001
20
269.40000000000003
30
0
11
113.10000000000001
21
288.30000000000001
31
0
0
LINE
5
612
100
AcDbEntity
8
0
100
AcDbLine
10
113.10000000000001
20
288.30000000000001
30
0
11
98.100000000000009
21
288.30000000000001
31
0
0
LINE
5
613
100
AcDbEntity
8
0
100
AcDbLine
10
98.100000000000009
20
288.30000000000001
30
0
11
98.100000000000009
21
269.40000000000003
31
0
0
LWPOLYLINE
5
614
100
AcDbEntity
8
0
100
AcDbPolyline
90
4
70
1
43
0.0
10
103.0999641790747
20
279.35195348256207
10
103.10000000000001
20
269.60000000000002
10
99.100000000026981
20
269.59998530717962
10
99.099964179101676
20
279.35193878974167
0
LWPOLYLINE
5
615
100
AcDbEntity
8
0
100
AcDbPolyline
90
4
70
1
43
0.0
10
107.09996542021759
20
279.01406249993647
10
107.10000000000001
20
269.60000000000002
10
103.10000000002699
20
269.59998530717962
10
103.09996542024457
20
279.01404780711607
0
LINE
5
616
100
AcDbEntity
8
0
100
AcDbLine
10
113.10000000000001
20
269.40000000000003
30
0
11
128.09999999999999
21
269.40000000000003
31
0
0
LINE
5
617
100
AcDbEntity
8
0
100
AcDbLine
10
128.09999999999999
20
269.40000000000003
30
0
11
128.09999999999999
21
288.30000000000001
31
0
0
LINE
5
618
100
AcDbEntity
8
0
100
AcDbLine
10
128.09999999999999
20
288.30000000000001
30
0
11
113.10000000000001
21
288.30000000000001
31
0
0
LINE
5
619
100
AcDbEntity
8
0
100
AcDbLine
10
113.10000000000001
20
288.30000000000001
30
0
11
113.10000000000001
21
269.40000000000003
31
0
0
LWPOLYLINE
5
620
100
AcDbEntity
8
0
100
AcDbPolyline
90
4
70
1
43
0.0
10
118.0999641790747
20
279.35195348256207
10
118.10000000000001
20
269.60000000000002
10
114.10000000002698
20
269.59998530717962
10
114.09996417910168
20
279.35193878974167
0
LWPOLYLINE
5
621
100
AcDbEntity
8
0
100
AcDbPolyline
90
4
70
1
43
0.0
10
122.09996542021759
20
279.01406249993647
10
122.10000000000001
20
269.60000000000002
10
118.10000000002699
20
269.59998530717962
10
118.09996542024457
20
279.01404780711607
0
LINE
5
622
100
AcDbEntity
8
0
100
AcDbLine
10
128.09999999999999
20
269.40000000000003
30
0
11
143.09999999999999
21
269.40000000000003
31
0
0
LINE
5
623
100
AcDbEntity
8
0
100
AcDbLine
10
143.09999999999999
20
269.40000000000003
30
0
11
143.09999999999999
21
288.30000000000001
31
0
0
LINE
5
624
100
AcDbEntity
8
0
100
AcDbLine
10
143.09999999999999
20
288.30000000000001
30
0
11
128.09999999999999
21
288.30000000000001
31
0
0
LINE
5
625
100
AcDbEntity
8
0
100
AcDbLine
10
128.09999999999999
20
288.30000000000001
30
0
11
128.09999999999999
21
269.40000000000003
31
0
0
LWPOLYLINE
5
626
100
AcDbEntity
8
0
100
AcDbPolyline
90
4
70
1
43
0.0
10
133.0999641790747
20
279.35195348256207
10
133.09999999999999
20
269.60000000000002
10
129.10000000002699
20
269.59998530717962
10
129.09996417910168
20
279.35193878974167
0
LWPOLYLINE
5
627
100
AcDbEntity
8
0
100
AcDbPolyline
90
4
70
1
43
0.0
10
137.09996542021759
20
279.01406249993647
10
137.10000000000002
20
269.60000000000002
10
133.10000000002699
20
269.59998530717962
10
133.09996542024459
20
279.01404780711607
0
LINE
5
628
100
AcDbEntity
8
0
100
AcDbLine
10
143.09999999999999
20
269.40000000000003
30
0
11
158.09999999999999
21
269.40000000000003
31
0
0
LINE
5
629
100
AcDbEntity
8
0
100
AcDbLine
10
158.09999999999999
20
269.40000000000003
30
0
11
158.09999999999999
21
288.30000000000001
31
0
0
LINE
5
630
100
AcDbEntity
8
0
100
AcDbLine
10
158.09999999999999
20
288.30000000000001
30
0
11
143.09999999999999
21
288.30000000000001
31
0
0
LINE
5
631
100
AcDbEntity
8
0
100
AcDbLine
10
143.09999999999999
20
288.30000000000001
30
0
11
143.09999999999999
21
269.40000000000003
31
0
0
LWPOLYLINE
5
632
100
AcDbEntity
8
0
100
AcDbPolyline
90
4
70
1
43
0.0
10
148.0999641790747
20
279.35195348256207
10
148.09999999999999
20
269.60000000000002
10
144.10000000002699
20
269.59998530717962
10
144.09996417910168
20
279.35193878974167
0
LWPOLYLINE
5
633
100
AcDbEntity
8
0
100
AcDbPolyline
90
4
70
1
43
0.0
10
152.09996542021759
20
279.01406249993647
10
152.10000000000002
20
269.60000000000002
10
148.10000000002699
20
269.59998530717962
10
148.09996542024459
20
279.01404780711607
0
LINE
5
634
100
AcDbEntity
8
0
100
AcDbLine
10
158.09999999999999
20
269.40000000000003
30
0
11
173.10000000000002
21
269.40000000000003
31
0
0
LINE
5
635
100
AcDbEntity
8
0
100
AcDbLine
10
173.10000000000002
20
269.40000000000003
30
0
11
173.10000000000002
21
288.30000000000001
31
0
0
LINE
5
636
100
AcDbEntity
8
0
100
AcDbLine
10
173.10000000000002
20
288.30000000000001
30
0
11
158.09999999999999
21
288.30000000000001
31
0
0
LINE
5
637
100
AcDbEntity
8
0
100
AcDbLine
10
158.09999999999999
20
288.30000000000001
30
0
11
158.09999999999999
21
269.40000000000003
31
0
0
LWPOLYLINE
5
638
100
AcDbEntity
8
0
100
AcDbPolyline
90
4
70
1
43
0.0
10
163.0999641790747
20
279.35195348256207
10
163.09999999999999
20
269.60000000000002
10
159.10000000002697
20
269.59998530717962
10
159.09996417910168
20
279.35193878974167
0
LWPOLYLINE
5
639
100
AcDbEntity
8
0
100
AcDbPolyline
90
4
70
1
43
0.0
10
167.09996542021759
20
279.01406249993647
10
167.10000000000002
20
269.60000000000002
10
163.10000000002699
20
269.59998530717962
10
163.09996542024459
20
279.01404780711607
0
LINE
5
640
100
AcDbEntity
8
0
100
AcDbLine
10
173.10000000000002
20
269.40000000000003
30
0
11
188.10000000000002
21
269.40000000000003
31
0
0
LINE
5
641
100
AcDbEntity
8
0
100
AcDbLine
10
188.10000000000002
20
269.40000000000003
30
0
11
188.10000000000002
21
288.30000000000001
31
0
0
LINE
5
642
100
AcDbEntity
8
0
100
AcDbLine
10
188.10000000000002
20
288.30000000000001
30
0
11
173.10000000000002
21
288.30000000000001
31
0
0
LINE
5
643
100
AcDbEntity
8
0
100
AcDbLine
10
173.10000000000002
20
288.30000000000001
30
0
11
173.10000000000002
21
269.40000000000003
31
0
0
LWPOLYLINE
5
644
100
AcDbEntity
8
0
100
AcDbPolyline
90
4
70
1
43
0.0
10
178.09996417907473
20
279.35195348256207
10
178.10000000000002
20
269.60000000000002
10
174.10000000002699
20
269.59998530717962
10
174.09996417910173
20
279.35193878974167
0
LWPOLYLINE
5
645
100
AcDbEntity
8
0
100
AcDbPolyline
90
4
70
1
43
0.0
10
182.09996542021764
20
279.01406249993647
10
182.10000000000005
20
269.60000000000002
10
178.10000000002702
20
269.59998530717962
10
178.09996542024462
20
279.01404780711607
0
LINE
5
646
100
AcDbEntity
8
0
100
AcDbLine
10
188.10000000000002
20
269.40000000000003
30
0
11
203.10000000000002
21
269.40000000000003
31
0
0
LINE
5
647
100
AcDbEntity
8
0
100
AcDbLine
10
203.10000000000002
20
269.40000000000003
30
0
11
203.10000000000002
21
288.30000000000001
31
0
0
LINE
5
648
100
AcDbEntity
8
0
100
AcDbLine
10
203.10000000000002
20
288.30000000000001
30
0
11
188.10000000000002
21
288.30000000000001
31
0
0
LINE
5
649
100
AcDbEntity
8
0
100
AcDbLine
10
188.10000000000002
20
288.30000000000001
30
0
11
188.10000000000002
21
269.40000000000003
31
0
0
LWPOLYLINE
5
650
100
AcDbEntity
8
0
100
AcDbPolyline
90
4
70
1
43
0.0
10
193.09996417907473
20
279.35195348256207
10
193.10000000000002
20
269.60000000000002
10
189.10000000002699
20
269.59998530717962
10
189.09996417910173
20
279.35193878974167
0
LWPOLYLINE
5
651
100
AcDbEntity
8
0
100
AcDbPolyline
90
4
70
1
43
0.0
10
197.09996542021764
20
279.01406249993647
10
197.10000000000005
20
269.60000000000002
10
193.10000000002702
20
269.59998530717962
10
193.09996542024462
20
279.01404780711607
0
LINE
5
652
100
AcDbEntity
8
0
100
AcDbLine
10
203.10000000000002
20
269.40000000000003
30
0
11
218.10000000000002
21
269.40000000000003
31
0
0
LINE
5
653
100
AcDbEntity
8
0
100
AcDbLine
10
218.10000000000002
20
269.40000000000003
30
0
11
218.10000000000002
21
288.30000000000001
31
0
0
LINE
5
654
100
AcDbEntity
8
0
100
AcDbLine
10
218.10000000000002
20
288.30000000000001
30
0
11
203.10000000000002
21
288.30000000000001
31
0
0
LINE
5
655
100
AcDbEntity
8
0
100
AcDbLine
10
203.10000000000002
20
288.30000000000001
30
0
11
203.10000000000002
21
269.40000000000003
31
0
0
LWPOLYLINE
5
656
100
AcDbEntity
8
0
100
AcDbPolyline
90
4
70
1
43
0.0
10
208.09996417907473
20
279.35195348256207
10
208.10000000000002
20
269.60000000000002
10
204.10000000002699
20
269.59998530717962
10
204.09996417910173
20
279.35193878974167
0
LWPOLYLINE
5
657
100
AcDbEntity
8
0
100
AcDbPolyline
90
4
70
1
43
0.0
10
212.09996542021764
20
279.01406249993647
10
212.10000000000005
20
269.60000000000002
10
208.10000000002702
20
269.59998530717962
10
208.09996542024462
20
279.01404780711607
0
LINE
5
658
100
AcDbEntity
8
0
100
AcDbLine
10
218.10000000000002
20
269.40000000000003
30
0
11
230.10000000000002
21
269.40000000000003
31
0
0
LINE
5
659
100
AcDbEntity
8
0
100
AcDbLine
10
230.10000000000002
20
269.40000000000003
30
0
11
230.10000000000002
21
288
31
0
0
LINE
5
660
100
AcDbEntity
8
0
100
AcDbLine
10
230.10000000000002
20
288
30
0
11
218.10000000000002
21
288
31
0
0
LINE
5
661
100
AcDbEntity
8
0
100
AcDbLine
10
218.10000000000002
20
288
30
0
11
218.10000000000002
21
269.40000000000003
31
0
0
LWPOLYLINE
5
662
100
AcDbEntity
8
0
100
AcDbPolyline
90
4
70
1
43
0.0
10
223.09995677527201
20
281.36757812492061
10
223.10000000000002
20
269.60000000000002
10
219.10000000002699
20
269.59998530717962
10
219.09995677529901
20
281.36756343210021
0
LINE
5
663
100
AcDbEntity
8
0
100
AcDbLine
10
230.10000000000002
20
269.40000000000003
30
0
11
242.10000000000002
21
269.40000000000003
31
0
0
LINE
5
664
100
AcDbEntity
8
0
100
AcDbLine
10
242.10000000000002
20
269.40000000000003
30
0
11
242.10000000000002
21
288
31
0
0
LINE
5
665
100
AcDbEntity
8
0
100
AcDbLine
10
242.10000000000002
20
288
30
0
11
230.10000000000002
21
288
31
0
0
LINE
5
666
100
AcDbEntity
8
0
100
AcDbLine
10
230.10000000000002
20
288
30
0
11
230.10000000000002
21
269.40000000000003
31
0
0
LWPOLYLINE
5
667
100
AcDbEntity
8
0
100
AcDbPolyline
90
4
70
1
43
0.0
10
235.09995677527201
20
281.36757812492061
10
235.10000000000002
20
269.60000000000002
10
231.10000000002699
20
269.59998530717962
10
231.09995677529898
20
281.36756343210021
0
LINE
5
668
100
AcDbEntity
8
0
100
AcDbLine
10
242.10000000000002
20
269.40000000000003
30
0
11
254.09999999999999
21
269.40000000000003
31
0
0
LINE
5
669
100
AcDbEntity
8
0
100
AcDbLine
10
254.09999999999999
20
269.40000000000003
30
0
11
254.09999999999999
21
288
31
0
0
LINE
5
670
100
AcDbEntity
8
0
100
AcDbLine
10
254.09999999999999
20
288
30
0
11
242.10000000000002
21
288
31
0
0
LINE
5
671
100
AcDbEntity
8
0
100
AcDbLine
10
242.10000000000002
20
288
30
0
11
242.10000000000002
21
269.40000000000003
31
0
0
LWPOLYLINE
5
672
100
AcDbEntity
8
0
100
AcDbPolyline
90
4
70
1
43
0.0
10
247.09995677527201
20
281.36757812492061
10
247.10000000000002
20
269.60000000000002
10
243.10000000002699
20
269.59998530717962
10
243.09995677529898
20
281.36756343210021
0
LINE
5
673
100
AcDbEntity
8
0
100
AcDbLine
10
254.09999999999999
20
269.40000000000003
30
0
11
266.10000000000002
21
269.40000000000003
31
0
0
LINE
5
674
100
AcDbEntity
8
0
100
AcDbLine
10
266.10000000000002
20
269.40000000000003
30
0
11
266.10000000000002
21
288
31
0
0
LINE
5
675
100
AcDbEntity
8
0
100
AcDbLine
10
266.10000000000002
20
288
30
0
11
254.09999999999999
21
288
31
0
0
LINE
5
676
100
AcDbEntity
8
0
100
AcDbLine
10
254.09999999999999
20
288
30
0
11
254.09999999999999
21
269.40000000000003
31
0
0
LWPOLYLINE
5
677
100
AcDbEntity
8
0
100
AcDbPolyline
90
4
70
1
43
0.0
10
259.09995677527201
20
281.36757812492061
10
259.10000000000002
20
269.60000000000002
10
255.10000000002697
20
269.59998530717962
10
255.09995677529898
20
281.36756343210021
0
LINE
5
678
100
AcDbEntity
8
0
100
AcDbLine
10
266.10000000000002
20
269.40000000000003
30
0
11
278.10000000000002
21
269.40000000000003
31
0
0
LINE
5
679
100
AcDbEntity
8
0
100
AcDbLine
10
278.10000000000002
20
269.40000000000003
30
0
11
278.10000000000002
21
288
31
0
0
LINE
5
680
100
AcDbEntity
8
0
100
AcDbLine
10
278.10000000000002
20
288
30
0
11
266.10000000000002
21
288
31
0
0
LINE
5
681
100
AcDbEntity
8
0
100
AcDbLine
10
266.10000000000002
20
288
30
0
11
266.10000000000002
21
269.40000000000003
31
0
0
LWPOLYLINE
5
682
100
AcDbEntity
8
0
100
AcDbPolyline
90
4
70
1
43
0.0
10
271.09995677527201
20
281.36757812492061
10
271.10000000000002
20
269.60000000000002
10
267.10000000002697
20
269.59998530717962
10
267.09995677529895
20
281.36756343210021
0
LINE
5
683
100
AcDbEntity
8
0
100
AcDbLine
10
295.35000000000008
20
0
30
0
11
313.35000000000008
21
0
31
0
0
LINE
5
684
100
AcDbEntity
8
0
100
AcDbLine
10
313.35000000000008
20
0
30
0
11
313.35000000000008
21
18.300000000000001
31
0
0
LINE
5
685
100
AcDbEntity
8
0
100
AcDbLine
10
313.35000000000008
20
18.300000000000001
30
0
11
295.35000000000008
21
18.300000000000001
31
0
0
LINE
5
686
100
AcDbEntity
8
0
100
AcDbLine
10
295.35000000000008
20
18.300000000000001
30
0
11
295.35000000000008
21
0
31
0
0
LWPOLYLINE
5
687
100
AcDbEntity
8
0
100
AcDbPolyline
90
4
70
1
43
0.0
10
300.34996016868138
20
11.043750238345424
10
300.35000000000008
20
0.20000000000000001
10
296.35000000002708
20
0.19998530717958651
10
296.34996016870832
20
11.04373554552501
0
LINE
5
688
100
AcDbEntity
8
0
100
AcDbLine
10
295.35000000000008
20
18.300000000000001
30
0
11
303.75000000000006
21
18.300000000000001
31
0
0
LINE
5
689
100
AcDbEntity
8
0
100
AcDbLine
10
303.75000000000006
20
18.300000000000001
30
0
11
303.75000000000006
21
36.299999999999997
31
0
0
LINE
5
690
100
AcDbEntity
8
0
100
AcDbLine
10
303.75000000000006
20
36.299999999999997
30
0
11
295.35000000000008
21
36.299999999999997
31
0
0
LINE
5
691
100
AcDbEntity
8
0
100
AcDbLine
10
295.35000000000008
20
36.299999999999997
30
0
11
295.35000000000008
21
18.300000000000001
31
0
0
LWPOLYLINE
5
692
100
AcDbEntity
8
0
100
AcDbPolyline
90
4
70
1
43
0.0
10
300.34993604175105
20
35.912109374882533
10
300.35000000000008
20
18.5
10
296.35000000002708
20
18.499985307179585
10
296.34993604177805
20
35.912094682062119
0
LINE
5
693
100
AcDbEntity
8
0
100
AcDbLine
10
295.35000000000008
20
36.299999999999997
30
0
11
313.35000000000008
21
36.299999999999997
31
0
0
LINE
5
694
100
AcDbEntity
8
0
100
AcDbLine
10
313.35000000000008
20
36.299999999999997
30
0
11
313.35000000000008
21
54.299999999999997
31
0
0
LINE
5
695
100
AcDbEntity
8
0
100
AcDbLine
10
313.35000000000008
20
54.299999999999997
30
0
11
295.35000000000008
21
54.299999999999997
31
0
0
LINE
5
696
100
AcDbEntity
8
0
100
AcDbLine
10
295.35000000000008
20
54.299999999999997
30
0
11
295.35000000000008
21
36.299999999999997
31
0
0
LWPOLYLINE
5
697
100
AcDbEntity
8
0
100
AcDbPolyline
90
4
70
1
43
0.0
10
300.34994421319493
20
51.687500715153277
10
300.35000000000008
20
36.5
10
296.35000000002708
20
36.499985307179585
10
296.34994421322193
20
51.687486022332862
0
LWPOLYLINE
5
698
100
AcDbEntity
8
0
100
AcDbPolyline
90
4
70
1
43
0.0
10
304.34998085198185
20
41.712891101801986
10
304.35000000000008
20
36.5
10
300.35000000002708
20
36.499985307179585
10
300.34998085200891
20
41.712876408981579
0
LINE
5
699
100
AcDbEntity
8
0
100
AcDbLine
10
295.35000000000008
20
54.299999999999997
30
0
11
313.35000000000008
21
54.299999999999997
31
0
0
LINE
5
700
100
AcDbEntity
8
0
100
AcDbLine
10
313.35000000000008
20
54.299999999999997
30
0
11
313.35000000000008
21
72.299999999999983
31
0
0
LINE
5
701
100
AcDbEntity
8
0
100
AcDbLine
10
313.35000000000008
20
72.299999999999983
30
0
11
295.35000000000008
21
72.299999999999983
31
0
0
LINE
5
702
100
AcDbEntity
8
0
100
AcDbLine
10
295.35000000000008
20
72.299999999999983
30
0
11
295.35000000000008
21
54.299999999999997
31
0
0
LWPOLYLINE
5
703
100
AcDbEntity
8
0
100
AcDbPolyline
90
4
70
1
43
0.0
10
300.34994421319493
20
69.687500715153277
10
300.35000000000008
20
54.499999999999993
10
296.35000000002708
20
54.499985307179585
10
296.34994421322193
20
69.687486022332862
0
LWPOLYLINE
5
704
100
AcDbEntity
8
0
100
AcDbPolyline
90
4
70
1
43
0.0
10
304.34998085198185
20
59.712891101801979
10
304.35000000000008
20
54.499999999999993
10
300.35000000002708
20
54.499985307179585
10
300.34998085200891
20
59.712876408981572
0
LINE
5
705
100
AcDbEntity
8
0
100
AcDbLine
10
295.35000000000008
20
72.299999999999983
30
0
11
313.35000000000008
21
72.299999999999983
31
0
0
LINE
5
706
100
AcDbEntity
8
0
100
AcDbLine
10
313.35000000000008
20
72.299999999999983
30
0
11
313.35000000000008
21
90.299999999999997
31
0
0
LINE
5
707
100
AcDbEntity
8
0
100
AcDbLine
10
313.35000000000008
20
90.299999999999997
30
0
11
295.35000000000008
21
90.299999999999997
31
0
0
LINE
5
708
100
AcDbEntity
8
0
100
AcDbLine
10
295.35000000000008
20
90.299999999999997
30
0
11
295.35000000000008
21
72.299999999999983
31
0
0
LWPOLYLINE
5
709
100
AcDbEntity
8
0
100
AcDbPolyline
90
4
70
1
43
0.0
10
300.3499592862521
20
83.583984374925222
10
300.35000000000008
20
72.5
10
296.35000000002708
20
72.499985307179585
10
296.3499592862791
20
83.583969682104822
0
LWPOLYLINE
5
710
100
AcDbEntity
8
0
100
AcDbPolyline
90
4
70
1
43
0.0
10
304.34997442387254
20
79.462891220999467
10
304.35000000000008
20
72.5
10
300.35000000002708
20
72.499985307179585
10
300.34997442389954
20
79.462876528179066
0
LWPOLYLINE
5
711
100
AcDbEntity
8
0
100
AcDbPolyline
90
4
70
1
43
0.0
10
308.34994498801512
20
87.476562261480382
10
308.35000000000008
20
72.5
10
304.35000000002708
20
72.499985307179585
10
304.34994498804213
20
87.476547568659967
0
LINE
5
712
100
AcDbEntity
8
0
100
AcDbLine
10
295.35000000000008
20
90.299999999999997
30
0
11
313.35000000000008
21
90.299999999999997
31
0
0
LINE
5
713
100
AcDbEntity
8
0
100
AcDbLine
10
313.35000000000008
20
90.299999999999997
30
0
11
313.35000000000008
21
108.29999999999998
31
0
0
LINE
5
714
100
AcDbEntity
8
0
100
AcDbLine
10
313.35000000000008
20
108.29999999999998
30
0
11
295.35000000000008
21
108.29999999999998
31
0
0
LINE
5
715
100
AcDbEntity
8
0
100
AcDbLine
10
295.35000000000008
20
108.29999999999998
30
0
11
295.35000000000008
21
90.299999999999997
31
0
0
LWPOLYLINE
5
716
100
AcDbEntity
8
0
100
AcDbPolyline
90
4
70
1
43
0.0
10
300.34994421319493
20
105.68750071515328
10
300.35000000000008
20
90.5
10
296.35000000002708
20
90.499985307179585
10
296.34994421322193
20
105.68748602233286
0
LWPOLYLINE
5
717
100
AcDbEntity
8
0
100
AcDbPolyline
90
4
70
1
43
0.0
10
304.34998085198185
20
95.712891101802001
10
304.35000000000008
20
90.5
10
300.35000000002708
20
90.499985307179585
10
300.34998085200891
20
95.7128764089816
0
LINE
5
718
100
AcDbEntity
8
0
100
AcDbLine
10
295.35000000000008
20
108.29999999999998
30
0
11
307.35000000000008
21
108.29999999999998
31
0
0
LINE
5
719
100
AcDbEntity
8
0
100
AcDbLine
10
307.35000000000008
20
108.29999999999998
30
0
11
307.35000000000008
21
126.30000000000001
31
0
0
LINE
5
720
100
AcDbEntity
8
0
100
AcDbLine
10
307.35000000000008
20
126.30000000000001
30
0
11
295.35000000000008
21
126.30000000000001
31
0
0
LINE
5
721
100
AcDbEntity
8
0
100
AcDbLine
10
295.35000000000008
20
126.30000000000001
30
0
11
295.35000000000008
21
108.29999999999998
31
0
0
LWPOLYLINE
5
722
100
AcDbEntity
8
0
100
AcDbPolyline
90
4
70
1
43
0.0
10
300.34997442387248
20
115.46289122099948
10
300.35000000000008
20
108.5
10
296.35000000002708
20
108.49998530717957
10
296.34997442389948
20
115.46287652817907
0
LWPOLYLINE
5
723
100
AcDbEntity
8
0
100
AcDbPolyline
90
4
70
1
43
0.0
10
304.34997308229526
20
115.82812464232269
10
304.35000000000008
20
108.5
10
300.35000000002708
20
108.49998530717957
10
300.34997308232226
20
115.82810994950228
0
LINE
5
724
100
AcDbEntity
8
0
100
AcDbLine
10
295.35000000000008
20
126.30000000000001
30
0
11
313.35000000000008
21
126.30000000000001
31
0
0
LINE
5
725
100
AcDbEntity
8
0
100
AcDbLine
10
313.35000000000008
20
126.30000000000001
30
0
11
313.35000000000008
21
144.30000000000001
31
0
0
LINE
5
726
100
AcDbEntity
8
0
100
AcDbLine
10
313.35000000000008
20
144.30000000000001
30
0
11
295.35000000000008
21
144.30000000000001
31
0
0
LINE
5
727
100
AcDbEntity
8
0
100
AcDbLine
10
295.35000000000008
20
144.30000000000001
30
0
11
295.35000000000008
21
126.30000000000001
31
0
0
LWPOLYLINE
5
728
100
AcDbEntity
8
0
100
AcDbPolyline
90
4
70
1
43
0.0
10
300.34994421319493
20
141.68750071515328
10
300.35000000000008
20
126.5
10
296.35000000002708
20
126.49998530717959
10
296.34994421322193
20
141.68748602233285
0
LWPOLYLINE
5
729
100
AcDbEntity
8
0
100
AcDbPolyline
90
4
70
1
43
0.0
10
304.34998085198185
20
131.712891101802
10
304.35000000000008
20
126.5
10
300.35000000002708
20
126.49998530717959
10
300.34998085200891
20
131.7128764089816
0
LINE
5
730
100
AcDbEntity
8
0
100
AcDbLine
10
295.35000000000008
20
144.30000000000001
30
0
11
313.35000000000008
21
144.30000000000001
31
0
0
LINE
5
731
100
AcDbEntity
8
0
100
AcDbLine
10
313.35000000000008
20
144.30000000000001
30
0
11
313.35000000000008
21
162.30000000000001
31
0
0
LINE
5
732
100
AcDbEntity
8
0
100
AcDbLine
10
313.35000000000008
20
162.30000000000001
30
0
11
295.35000000000008
21
162.30000000000001
31
0
0
LINE
5
733
100
AcDbEntity
8
0
100
AcDbLine
10
295.35000000000008
20
162.30000000000001
30
0
11
295.35000000000008
21
144.30000000000001
31
0
0
LWPOLYLINE
5
734
100
AcDbEntity
8
0
100
AcDbPolyline
90
4
70
1
43
0.0
10
300.34994421319493
20
159.68750071515328
10
300.35000000000008
20
144.5
10
296.35000000002708
20
144.4999853071796
10
296.34994421322193
20
159.68748602233288
0
LWPOLYLINE
5
735
100
AcDbEntity
8
0
100
AcDbPolyline
90
4
70
1
43
0.0
10
304.34998085198185
20
149.712891101802
10
304.35000000000008
20
144.5
10
300.35000000002708
20
144.4999853071796
10
300.34998085200891
20
149.7128764089816
0
LINE
5
736
100
AcDbEntity
8
0
100
AcDbLine
10
295.35000000000008
20
162.30000000000001
30
0
11
307.35000000000008
21
162.30000000000001
31
0
0
LINE
5
737
100
AcDbEntity
8
0
100
AcDbLine
10
307.35000000000008
20
162.30000000000001
30
0
11
307.35000000000008
21
180.30000000000001
31
0
0
LINE
5
738
100
AcDbEntity
8
0
100
AcDbLine
10
307.35000000000008
20
180.30000000000001
30
0
11
295.35000000000008
21
180.30000000000001
31
0
0
LINE
5
739
100
AcDbEntity
8
0
100
AcDbLine
10
295.35000000000008
20
180.30000000000001
30
0
11
295.35000000000008
21
162.30000000000001
31
0
0
LWPOLYLINE
5
740
100
AcDbEntity
8
0
100
AcDbPolyline
90
4
70
1
43
0.0
10
300.34997687028493
20
168.79687547679467
10
300.35000000000008
20
162.5
10
296.35000000002708
20
162.4999853071796
10
296.34997687031193
20
168.79686078397427
0
LWPOLYLINE
5
741
100
AcDbEntity
8
0
100
AcDbPolyline
90
4
70
1
43
0.0
10
304.34996414320585
20
172.26171851151554
10
304.35000000000008
20
162.5
10
300.35000000002708
20
162.4999853071796
10
300.3499641432328
20
172.26170381869514
0
LINE
5
742
100
AcDbEntity
8
0
100
AcDbLine
10
295.35000000000008
20
180.30000000000001
30
0
11
310.35000000000008
21
180.30000000000001
31
0
0
LINE
5
743
100
AcDbEntity
8
0
100
AcDbLine
10
310.35000000000008
20
180.30000000000001
30
0
11
310.35000000000008
21
197.10000000000002
31
0
0
LINE
5
744
100
AcDbEntity
8
0
100
AcDbLine
10
310.35000000000008
20
197.10000000000002
30
0
11
295.35000000000008
21
197.10000000000002
31
0
0
LINE
5
745
100
AcDbEntity
8
0
100
AcDbLine
10
295.35000000000008
20
197.10000000000002
30
0
11
295.35000000000008
21
180.30000000000001
31
0
0
LWPOLYLINE
5
746
100
AcDbEntity
8
0
100
AcDbPolyline
90
4
70
1
43
0.0
10
300.349953998849
20
193.02343654624121
10
300.35000000000008
20
180.5
10
296.35000000002708
20
180.4999853071796
10
296.34995399887606
20
193.02342185342081
0
LWPOLYLINE
5
747
100
AcDbEntity
8
0
100
AcDbPolyline
90
4
70
1
43
0.0
10
304.3499654202177
20
189.91406249993648
10
304.35000000000008
20
180.5
10
300.35000000002708
20
180.4999853071796
10
300.34996542024464
20
189.91404780711608
0
LINE
5
748
100
AcDbEntity
8
0
100
AcDbLine
10
295.35000000000008
20
197.10000000000002
30
0
11
310.35000000000008
21
197.10000000000002
31
0
0
LINE
5
749
100
AcDbEntity
8
0
100
AcDbLine
10
310.35000000000008
20
197.10000000000002
30
0
11
310.35000000000008
21
213.90000000000001
31
0
0
LINE
5
750
100
AcDbEntity
8
0
100
AcDbLine
10
310.35000000000008
20
213.90000000000001
30
0
11
295.35000000000008
21
213.90000000000001
31
0
0
LINE
5
751
100
AcDbEntity
8
0
100
AcDbLine
10
295.35000000000008
20
213.90000000000001
30
0
11
295.35000000000008
21
197.10000000000002
31
0
0
LWPOLYLINE
5
752
100
AcDbEntity
8
0
100
AcDbPolyline
90
4
70
1
43
0.0
10
300.349953998849
20
209.8234365462412
10
300.35000000000008
20
197.30000000000001
10
296.35000000002708
20
197.29998530717961
10
296.34995399887606
20
209.8234218534208
0
LWPOLYLINE
5
753
100
AcDbEntity
8
0
100
AcDbPolyline
90
4
70
1
43
0.0
10
304.3499654202177
20
206.71406249993649
10
304.35000000000008
20
197.30000000000001
10
300.35000000002708
20
197.29998530717961
10
300.34996542024464
20
206.71404780711609
0
LINE
5
754
100
AcDbEntity
8
0
100
AcDbLine
10
295.35000000000008
20
213.90000000000001
30
0
11
310.35000000000008
21
213.90000000000001
31
0
0
LINE
5
755
100
AcDbEntity
8
0
100
AcDbLine
10
310.35000000000008
20
213.90000000000001
30
0
11
310.35000000000008
21
230.69999999999999
31
0
0
LINE
5
756
100
AcDbEntity
8
0
100
AcDbLine
10
310.35000000000008
20
230.69999999999999
30
0
11
295.35000000000008
21
230.69999999999999
31
0
0
LINE
5
757
100
AcDbEntity
8
0
100
AcDbLine
10
295.35000000000008
20
230.69999999999999
30
0
11
295.35000000000008
21
213.90000000000001
31
0
0
LWPOLYLINE
5
758
100
AcDbEntity
8
0
100
AcDbPolyline
90
4
70
1
43
0.0
10
300.349953998849
20
226.62343654624121
10
300.35000000000008
20
214.09999999999999
10
296.35000000002708
20
214.09998530717959
10
296.34995399887606
20
226.62342185342081
0
LWPOLYLINE
5
759
100
AcDbEntity
8
0
100
AcDbPolyline
90
4
70
1
43
0.0
10
304.3499654202177
20
223.51406249993647
10
304.35000000000008
20
214.09999999999999
10
300.35000000002708
20
214.09998530717959
10
300.34996542024464
20
223.51404780711607
0
LINE
5
760
100
AcDbEntity
8
0
100
AcDbLine
10
295.35000000000008
20
230.69999999999999
30
0
11
310.35000000000008
21
230.69999999999999
31
0
0
LINE
5
761
100
AcDbEntity
8
0
100
AcDbLine
10
310.35000000000008
20
230.69999999999999
30
0
11
310.35000000000008
21
247.5
31
0
0
LINE
5
762
100
AcDbEntity
8
0
100
AcDbLine
10
310.35000000000008
20
247.5
30
0
11
295.35000000000008
21
247.5
31
0
0
LINE
5
763
100
AcDbEntity
8
0
100
AcDbLine
10
295.35000000000008
20
247.5
30
0
11
295.35000000000008
21
230.69999999999999
31
0
0
LWPOLYLINE
5
764
100
AcDbEntity
8
0
100
AcDbPolyline
90
4
70
1
43
0.0
10
300.349953998849
20
243.42343654624119
10
300.35000000000008
20
230.90000000000001
10
296.35000000002708
20
230.89998530717961
10
296.34995399887606
20
243.42342185342079
0
LWPOLYLINE
5
765
100
AcDbEntity
8
0
100
AcDbPolyline
90
4
70
1
43
0.0
10
304.3499654202177
20
240.31406249993648
10
304.35000000000008
20
230.90000000000001
10
300.35000000002708
20
230.89998530717961
10
300.34996542024464
20
240.31404780711608
0
LINE
5
766
100
AcDbEntity
8
0
100
AcDbLine
10
295.35000000000008
20
247.5
30
0
11
310.35000000000008
21
247.5
31
0
0
LINE
5
767
100
AcDbEntity
8
0
100
AcDbLine
10
310.35000000000008
20
247.5
30
0
11
310.35000000000008
21
264.30000000000001
31
0
0
LINE
5
768
100
AcDbEntity
8
0
100
AcDbLine
10
310.35000000000008
20
264.30000000000001
30
0
11
295.35000000000008
21
264.30000000000001
31
0
0
LINE
5
769
100
AcDbEntity
8
0
100
AcDbLine
10
295.35000000000008
20
264.30000000000001
30
0
11
295.35000000000008
21
247.5
31
0
0
LWPOLYLINE
5
770
100
AcDbEntity
8
0
100
AcDbPolyline
90
4
70
1
43
0.0
10
300.349953998849
20
260.2234365462412
10
300.35000000000008
20
247.69999999999999
10
296.35000000002708
20
247.69998530717959
10
296.34995399887606
20
260.2234218534208
0
LWPOLYLINE
5
771
100
AcDbEntity
8
0
100
AcDbPolyline
90
4
70
1
43
0.0
10
304.3499654202177
20
257.11406249993649
10
304.35000000000008
20
247.69999999999999
10
300.35000000002708
20
247.69998530717959
10
300.34996542024464
20
257.11404780711609
0
LINE
5
772
100
AcDbEntity
8
0
100
AcDbLine
10
295.35000000000008
20
264.30000000000001
30
0
11
311.85000000000002
21
264.30000000000001
31
0
0
LINE
5
773
100
AcDbEntity
8
0
100
AcDbLine
10
311.85000000000002
20
264.30000000000001
30
0
11
311.85000000000002
21
280.80000000000001
31
0
0
LINE
5
774
100
AcDbEntity
8
0
100
AcDbLine
10
311.85000000000002
20
280.80000000000001
30
0
11
295.35000000000008
21
280.80000000000001
31
0
0
LINE
5
775
100
AcDbEntity
8
0
100
AcDbLine
10
295.35000000000008
20
280.80000000000001
30
0
11
295.35000000000008
21
264.30000000000001
31
0
0
LWPOLYLINE
5
776
100
AcDbEntity
8
0
100
AcDbPolyline
90
4
70
1
43
0.0
10
300.34995831773125
20
275.84765624992343
10
300.35000000000008
20
264.5
10
296.35000000002708
20
264.4999853071796
10
296.34995831775819
20
275.84764155710303
0
LWPOLYLINE
5
777
100
AcDbEntity
8
0
100
AcDbPolyline
90
4
70
1
43
0.0
10
304.34996582914738
20
273.80273473256511
10
304.35000000000008
20
264.5
10
300.35000000002708
20
264.4999853071796
10
300.34996582917438
20
273.80272003974471
0
LINE
5
778
100
AcDbEntity
8
0
100
AcDbLine
10
278.10000000000002
20
269.40000000000003
30
0
11
294.60000000000002
21
269.40000000000003
31
0
0
LINE
5
779
100
AcDbEntity
8
0
100
AcDbLine
10
294.60000000000002
20
269.40000000000003
30
0
11
294.60000000000002
21
285.90000000000003
31
0
0
LINE
5
780
100
AcDbEntity
8
0
100
AcDbLine
10
294.60000000000002
20
285.90000000000003
30
0
11
278.10000000000002
21
285.90000000000003
31
0
0
LINE
5
781
100
AcDbEntity
8
0
100
AcDbLine
10
278.10000000000002
20
285.90000000000003
30
0
11
278.10000000000002
21
269.40000000000003
31
0
0
LWPOLYLINE
5
782
100
AcDbEntity
8
0
100
AcDbPolyline
90
4
70
1
43
0.0
10
283.09995831773119
20
280.94765624992345
10
283.10000000000002
20
269.60000000000002
10
279.10000000002702
20
269.59998530717962
10
279.09995831775814
20
280.94764155710305
0
LWPOLYLINE
5
783
100
AcDbEntity
8
0
100
AcDbPolyline
90
4
70
1
43
0.0
10
287.09996582914732
20
278.90273473256514
10
287.10000000000002
20
269.60000000000002
10
283.10000000002697
20
269.59998530717962
10
283.09996582917432
20
278.90272003974468
0
LINE
5
784
100
AcDbEntity
8
0
100
AcDbLine
10
303.75000000000006
20
18.300000000000001
30
0
11
313.05000000000007
21
18.300000000000001
31
0
0
LINE
5
785
100
AcDbEntity
8
0
100
AcDbLine
10
313.05000000000007
20
18.300000000000001
30
0
11
313.05000000000007
21
34.800000000000004
31
0
0
LINE
5
786
100
AcDbEntity
8
0
100
AcDbLine
10
313.05000000000007
20
34.800000000000004
30
0
11
303.75000000000006
21
34.800000000000004
31
0
0
LINE
5
787
100
AcDbEntity
8
0
100
AcDbLine
10
303.75000000000006
20
34.800000000000004
30
0
11
303.75000000000006
21
18.300000000000001
31
0
0
LWPOLYLINE
5
788
100
AcDbEntity
8
0
100
AcDbPolyline
90
4
70
1
43
0.0
10
308.74995677527204
20
30.267578124920611
10
308.75000000000006
20
18.5
10
304.75000000002706
20
18.499985307179585
10
304.74995677529904
20
30.267563432100204
0
LINE
5
789
100
AcDbEntity
8
0
100
AcDbLine
10
277.05000000000001
20
254.7000000000001
30
0
11
286.35000000000002
21
254.7000000000001
31
0
0
LINE
5
790
100
AcDbEntity
8
0
100
AcDbLine
10
286.35000000000002
20
254.7000000000001
30
0
11
286.35000000000002
21
268.80000000000007
31
0
0
LINE
5
791
100
AcDbEntity
8
0
100
AcDbLine
10
286.35000000000002
20
268.80000000000007
30
0
11
277.05000000000001
21
268.80000000000007
31
0
0
LINE
5
792
100
AcDbEntity
8
0
100
AcDbLine
10
277.05000000000001
20
268.80000000000007
30
0
11
277.05000000000001
21
254.7000000000001
31
0
0
LWPOLYLINE
5
793
100
AcDbEntity
8
0
100
AcDbPolyline
90
4
70
1
43
0.0
10
282.04995677527199
20
266.66757812492068
10
282.05000000000001
20
254.90000000000009
10
278.05000000002701
20
254.89998530717969
10
278.04995677529899
20
266.66756343210028
0
LINE
5
794
100
AcDbEntity
8
0
100
AcDbLine
10
0
20
292.50000000000006
30
0
11
9.2999999999999989
21
292.50000000000006
31
0
0
LINE
5
795
100
AcDbEntity
8
0
100
AcDbLine
10
9.2999999999999989
20
292.50000000000006
30
0
11
9.2999999999999989
21
306.60000000000002
31
0
0
LINE
5
796
100
AcDbEntity
8
0
100
AcDbLine
10
9.2999999999999989
20
306.60000000000002
30
0
11
0
21
306.60000000000002
31
0
0
LINE
5
797
100
AcDbEntity
8
0
100
AcDbLine
10
0
20
306.60000000000002
30
0
11
0
21
292.50000000000006
31
0
0
LWPOLYLINE
5
798
100
AcDbEntity
8
0
100
AcDbPolyline
90
4
70
1
43
0.0
10
4.9999567752719791
20
304.46757812492064
10
5
20
292.70000000000005
10
1.0000000000269849
20
292.69998530717965
10
0.9999567752989641
20
304.46756343210023
0
LINE
5
799
100
AcDbEntity
8
0
100
AcDbLine
10
9.2999999999999989
20
292.50000000000006
30
0
11
18.599999999999998
21
292.50000000000006
31
0
0
LINE
5
800
100
AcDbEntity
8
0
100
AcDbLine
10
18.599999999999998
20
292.50000000000006
30
0
11
18.599999999999998
21
306.60000000000002
31
0
0
LINE
5
801
100
AcDbEntity
8
0
100
AcDbLine
10
18.599999999999998
20
306.60000000000002
30
0
11
9.2999999999999989
21
306.60000000000002
31
0
0
LINE
5
802
100
AcDbEntity
8
0
100
AcDbLine
10
9.2999999999999989
20
306.60000000000002
30
0
11
9.2999999999999989
21
292.50000000000006
31
0
0
LWPOLYLINE
5
803
100
AcDbEntity
8
0
100
AcDbPolyline
90
4
70
1
43
0.0
10
14.29995677527198
20
304.46757812492064
10
14.300000000000001
20
292.70000000000005
10
10.300000000026985
20
292.69998530717965
10
10.299956775298966
20
304.46756343210023
0
LINE
5
804
100
AcDbEntity
8
0
100
AcDbLine
10
18.599999999999998
20
292.50000000000006
30
0
11
30.899999999999999
21
292.50000000000006
31
0
0
LINE
5
805
100
AcDbEntity
8
0
100
AcDbLine
10
30.899999999999999
20
292.50000000000006
30
0
11
30.899999999999999
21
304.80000000000007
31
0
0
LINE
5
806
100
AcDbEntity
8
0
100
AcDbLine
10
30.899999999999999
20
304.80000000000007
30
0
11
18.599999999999998
21
304.80000000000007
31
0
0
LINE
5
807
100
AcDbEntity
8
0
100
AcDbLine
10
18.599999999999998
20
304.80000000000007
30
0
11
18.599999999999998
21
292.50000000000006
31
0
0
LWPOLYLINE
5
808
100
AcDbEntity
8
0
100
AcDbPolyline
90
4
70
1
43
0.0
10
23.599956775271981
20
304.46757812492064
10
23.599999999999998
20
292.70000000000005
10
19.600000000026981
20
292.69998530717965
10
19.599956775298963
20
304.46756343210023
0
LINE
5
809
100
AcDbEntity
8
0
100
AcDbLine
10
30.899999999999999
20
292.50000000000006
30
0
11
43.200000000000003
21
292.50000000000006
31
0
0
LINE
5
810
100
AcDbEntity
8
0
100
AcDbLine
10
43.200000000000003
20
292.50000000000006
30
0
11
43.200000000000003
21
304.80000000000007
31
0
0
LINE
5
811
100
AcDbEntity
8
0
100
AcDbLine
10
43.200000000000003
20
304.80000000000007
30
0
11
30.899999999999999
21
304.80000000000007
31
0
0
LINE
5
812
100
AcDbEntity
8
0
100
AcDbLine
10
30.899999999999999
20
304.80000000000007
30
0
11
30.899999999999999
21
292.50000000000006
31
0
0
LWPOLYLINE
5
813
100
AcDbEntity
8
0
100
AcDbPolyline
90
4
70
1
43
0.0
10
35.899956775271981
20
304.46757812492064
10
35.899999999999999
20
292.70000000000005
10
31.900000000026981
20
292.69998530717965
10
31.899956775298964
20
304.46756343210023
0
ENDSEC
0
SECTION
2
OBJECTS
0
DICTIONARY
5
C
100
AcDbDictionary
3
ACAD_GROUP
350
D
3
ACAD_MLINESTYLE
350
17
0
DICTIONARY
5
D
100
AcDbDictionary
0
DICTIONARY
5
1A
330
C
100
AcDbDictionary
0
DICTIONARY
5
17
100
AcDbDictionary
0
ENDSEC
0
EOF
